<svg xmlns="http://www.w3.org/2000/svg" xmlns:xlink="http://www.w3.org/1999/xlink" width="5000" zoomAndPan="magnify" viewBox="0 0 3750 3749.999967" height="5000" preserveAspectRatio="xMidYMid meet" version="1.0"><defs><g/><clipPath id="c6f3427585"><path d="M 220.789062 915.011719 L 1283.222656 915.011719 L 1283.222656 2515.945312 L 220.789062 2515.945312 Z M 220.789062 915.011719 " clip-rule="nonzero"/></clipPath></defs><g fill="#ffffff" fill-opacity="1"><g transform="translate(1451.033625, 1725.018258)"><g><path d="M 50.421875 0 L 12.609375 0 L 12.609375 -147.0625 L 129.203125 -147.0625 L 129.203125 -117.640625 L 50.421875 -117.640625 L 50.421875 -82.984375 L 112.390625 -82.984375 L 112.390625 -53.5625 L 50.421875 -53.5625 Z M 50.421875 0 "/></g></g></g><g fill="#ffffff" fill-opacity="1"><g transform="translate(1624.282448, 1725.018258)"><g><path d="M 12.609375 -147.0625 L 100.84375 -147.0625 C 115.539062 -147.0625 126.21875 -143.734375 132.875 -137.078125 C 139.53125 -130.421875 142.859375 -119.742188 142.859375 -105.046875 L 142.859375 -86.125 C 142.859375 -74.507812 140.929688 -65.476562 137.078125 -59.03125 C 133.222656 -52.59375 127.09375 -48.320312 118.6875 -46.21875 L 144.953125 0 L 103.984375 0 L 79.828125 -44.109375 L 50.421875 -44.109375 L 50.421875 0 L 12.609375 0 Z M 105.046875 -105.046875 C 105.046875 -113.441406 100.84375 -117.640625 92.4375 -117.640625 L 50.421875 -117.640625 L 50.421875 -73.53125 L 92.4375 -73.53125 C 100.84375 -73.53125 105.046875 -77.726562 105.046875 -86.125 Z M 105.046875 -105.046875 "/></g></g></g><g fill="#ffffff" fill-opacity="1"><g transform="translate(1817.477959, 1725.018258)"><g><path d="M 38.859375 0 L -2.09375 0 L 53.5625 -147.0625 L 95.578125 -147.0625 L 151.25 0 L 110.296875 0 L 100.84375 -26.265625 L 48.3125 -26.265625 Z M 57.765625 -53.5625 L 91.390625 -53.5625 L 74.578125 -102.9375 Z M 57.765625 -53.5625 "/></g></g></g><g fill="#ffffff" fill-opacity="1"><g transform="translate(2008.573878, 1725.018258)"><g><path d="M 126.046875 -2.09375 C 94.816406 0.695312 68.90625 2.09375 48.3125 2.09375 C 34.59375 2.09375 24.507812 -1.125 18.0625 -7.5625 C 11.625 -14 8.40625 -24.082031 8.40625 -37.8125 L 8.40625 -105.046875 C 8.40625 -119.742188 11.726562 -130.421875 18.375 -137.078125 C 25.03125 -143.734375 35.710938 -147.0625 50.421875 -147.0625 L 126.046875 -147.0625 L 126.046875 -117.640625 L 58.828125 -117.640625 C 50.421875 -117.640625 46.21875 -113.441406 46.21875 -105.046875 L 46.21875 -37.8125 C 46.21875 -34.59375 47.160156 -32.035156 49.046875 -30.140625 C 50.941406 -28.253906 53.359375 -27.3125 56.296875 -27.3125 C 59.242188 -27.3125 62.46875 -27.34375 65.96875 -27.40625 C 69.46875 -27.476562 73.109375 -27.582031 76.890625 -27.71875 C 80.671875 -27.863281 84.484375 -28.003906 88.328125 -28.140625 C 92.179688 -28.285156 97.15625 -28.566406 103.25 -28.984375 C 109.34375 -29.410156 116.941406 -29.90625 126.046875 -30.46875 Z M 126.046875 -2.09375 "/></g></g></g><g fill="#ffffff" fill-opacity="1"><g transform="translate(2180.772947, 1725.018258)"><g><path d="M 84.03125 0 L 46.21875 0 L 46.21875 -117.640625 L 2.09375 -117.640625 L 2.09375 -147.0625 L 128.140625 -147.0625 L 128.140625 -117.640625 L 84.03125 -117.640625 Z M 84.03125 0 "/></g></g></g><g fill="#ffffff" fill-opacity="1"><g transform="translate(2352.972017, 1725.018258)"><g><path d="M 81.9375 0 L 6.296875 0 L 6.296875 -29.40625 L 25.203125 -29.40625 L 25.203125 -117.640625 L 6.296875 -117.640625 L 6.296875 -147.0625 L 81.9375 -147.0625 L 81.9375 -117.640625 L 63.03125 -117.640625 L 63.03125 -29.40625 L 81.9375 -29.40625 Z M 81.9375 0 "/></g></g></g><g fill="#ffffff" fill-opacity="1"><g transform="translate(2483.178104, 1725.018258)"><g><path d="M 107.140625 -107.140625 C 107.140625 -115.546875 102.9375 -119.75 94.53125 -119.75 L 58.828125 -119.75 C 50.421875 -119.75 46.21875 -115.546875 46.21875 -107.140625 L 46.21875 -39.921875 C 46.21875 -31.515625 50.421875 -27.3125 58.828125 -27.3125 L 94.53125 -27.3125 C 102.9375 -27.3125 107.140625 -31.515625 107.140625 -39.921875 Z M 144.953125 -39.921875 C 144.953125 -25.210938 141.625 -14.53125 134.96875 -7.875 C 128.320312 -1.226562 117.644531 2.09375 102.9375 2.09375 L 50.421875 2.09375 C 35.710938 2.09375 25.03125 -1.226562 18.375 -7.875 C 11.726562 -14.53125 8.40625 -25.210938 8.40625 -39.921875 L 8.40625 -107.140625 C 8.40625 -121.847656 11.726562 -132.523438 18.375 -139.171875 C 25.03125 -145.828125 35.710938 -149.15625 50.421875 -149.15625 L 102.9375 -149.15625 C 117.644531 -149.15625 128.320312 -145.828125 134.96875 -139.171875 C 141.625 -132.523438 144.953125 -121.847656 144.953125 -107.140625 Z M 144.953125 -39.921875 "/></g></g></g><g fill="#ffffff" fill-opacity="1"><g transform="translate(2678.473207, 1725.018258)"><g><path d="M 140.75 0 L 100.84375 0 L 50.421875 -88.234375 L 50.421875 0 L 12.609375 0 L 12.609375 -147.0625 L 52.515625 -147.0625 L 102.9375 -58.828125 L 102.9375 -147.0625 L 140.75 -147.0625 Z M 140.75 0 "/></g></g></g><g fill="#ffffff" fill-opacity="1"><g transform="translate(2873.768386, 1725.018258)"><g><path d="M 38.859375 0 L -2.09375 0 L 53.5625 -147.0625 L 95.578125 -147.0625 L 151.25 0 L 110.296875 0 L 100.84375 -26.265625 L 48.3125 -26.265625 Z M 57.765625 -53.5625 L 91.390625 -53.5625 L 74.578125 -102.9375 Z M 57.765625 -53.5625 "/></g></g></g><g fill="#ffffff" fill-opacity="1"><g transform="translate(1422.934329, 1939.31526)"><g><path d="M 44.890625 -55.125 L 54.34375 -19.6875 L 62.609375 -55.125 L 77.96875 -55.125 L 63 0 L 48.03125 0 L 38.59375 -34.25 L 29.140625 0 L 14.171875 0 L -0.78125 -55.125 L 14.5625 -55.125 L 22.84375 -19.6875 L 32.28125 -55.125 Z M 44.890625 -55.125 "/></g></g></g><g fill="#ffffff" fill-opacity="1"><g transform="translate(1543.270085, 1939.31526)"><g><path d="M 52.765625 0 L 38.59375 0 L 38.59375 -22.4375 L 18.90625 -22.4375 L 18.90625 0 L 4.71875 0 L 4.71875 -55.125 L 18.90625 -55.125 L 18.90625 -33.46875 L 38.59375 -33.46875 L 38.59375 -55.125 L 52.765625 -55.125 Z M 52.765625 0 "/></g></g></g><g fill="#ffffff" fill-opacity="1"><g transform="translate(1643.917293, 1939.31526)"><g><path d="M 14.5625 0 L -0.78125 0 L 20.078125 -55.125 L 35.828125 -55.125 L 56.703125 0 L 41.34375 0 L 37.796875 -9.84375 L 18.109375 -9.84375 Z M 21.65625 -20.078125 L 34.25 -20.078125 L 27.953125 -38.59375 Z M 21.65625 -20.078125 "/></g></g></g><g fill="#ffffff" fill-opacity="1"><g transform="translate(1742.989497, 1939.31526)"><g><path d="M 31.5 0 L 17.328125 0 L 17.328125 -44.09375 L 0.78125 -44.09375 L 0.78125 -55.125 L 48.03125 -55.125 L 48.03125 -44.09375 L 31.5 -44.09375 Z M 31.5 0 "/></g></g></g><g fill="#ffffff" fill-opacity="1"><g transform="translate(1834.973782, 1939.31526)"><g/></g></g><g fill="#ffffff" fill-opacity="1"><g transform="translate(1901.75683, 1939.31526)"><g><path d="M 51.96875 -30.71875 L 40.953125 -11.03125 L 29.921875 -11.03125 L 18.90625 -30.71875 L 18.90625 0 L 4.71875 0 L 4.71875 -55.125 L 19.6875 -55.125 L 35.4375 -25.984375 L 51.1875 -55.125 L 66.15625 -55.125 L 66.15625 0 L 51.96875 0 Z M 51.96875 -30.71875 "/></g></g></g><g fill="#ffffff" fill-opacity="1"><g transform="translate(2015.792294, 1939.31526)"><g><path d="M 14.5625 0 L -0.78125 0 L 20.078125 -55.125 L 35.828125 -55.125 L 56.703125 0 L 41.34375 0 L 37.796875 -9.84375 L 18.109375 -9.84375 Z M 21.65625 -20.078125 L 34.25 -20.078125 L 27.953125 -38.59375 Z M 21.65625 -20.078125 "/></g></g></g><g fill="#ffffff" fill-opacity="1"><g transform="translate(2114.864522, 1939.31526)"><g><path d="M 31.5 0 L 17.328125 0 L 17.328125 -44.09375 L 0.78125 -44.09375 L 0.78125 -55.125 L 48.03125 -55.125 L 48.03125 -44.09375 L 31.5 -44.09375 Z M 31.5 0 "/></g></g></g><g fill="#ffffff" fill-opacity="1"><g transform="translate(2206.848833, 1939.31526)"><g><path d="M 31.5 0 L 17.328125 0 L 17.328125 -44.09375 L 0.78125 -44.09375 L 0.78125 -55.125 L 48.03125 -55.125 L 48.03125 -44.09375 L 31.5 -44.09375 Z M 31.5 0 "/></g></g></g><g fill="#ffffff" fill-opacity="1"><g transform="translate(2298.833144, 1939.31526)"><g><path d="M 48.4375 0 L 4.71875 0 L 4.71875 -55.125 L 48.4375 -55.125 L 48.4375 -44.09375 L 18.90625 -44.09375 L 18.90625 -33.46875 L 42.125 -33.46875 L 42.125 -22.4375 L 18.90625 -22.4375 L 18.90625 -11.03125 L 48.4375 -11.03125 Z M 48.4375 0 "/></g></g></g><g fill="#ffffff" fill-opacity="1"><g transform="translate(2391.998808, 1939.31526)"><g><path d="M 4.71875 -55.125 L 37.796875 -55.125 C 43.304688 -55.125 47.304688 -53.875 49.796875 -51.375 C 52.296875 -48.882812 53.546875 -44.882812 53.546875 -39.375 L 53.546875 -32.28125 C 53.546875 -27.925781 52.820312 -24.539062 51.375 -22.125 C 49.9375 -19.707031 47.644531 -18.109375 44.5 -17.328125 L 54.34375 0 L 38.984375 0 L 29.921875 -16.53125 L 18.90625 -16.53125 L 18.90625 0 L 4.71875 0 Z M 39.375 -39.375 C 39.375 -42.519531 37.800781 -44.09375 34.65625 -44.09375 L 18.90625 -44.09375 L 18.90625 -27.5625 L 34.65625 -27.5625 C 37.800781 -27.5625 39.375 -29.132812 39.375 -32.28125 Z M 39.375 -39.375 "/></g></g></g><g fill="#ffffff" fill-opacity="1"><g transform="translate(2491.858539, 1939.31526)"><g><path d="M 3.078125 -11.421875 C 17.460938 -10.628906 27.195312 -10.234375 32.28125 -10.234375 C 33.488281 -10.234375 34.445312 -10.585938 35.15625 -11.296875 C 35.863281 -12.003906 36.21875 -12.960938 36.21875 -14.171875 L 36.21875 -21.265625 L 18.109375 -21.265625 C 12.597656 -21.265625 8.59375 -22.507812 6.09375 -25 C 3.601562 -27.5 2.359375 -31.503906 2.359375 -37.015625 L 2.359375 -39.375 C 2.359375 -44.882812 3.601562 -48.882812 6.09375 -51.375 C 8.59375 -53.875 12.597656 -55.125 18.109375 -55.125 L 45.75 -55.125 L 45.75 -44.09375 L 21.265625 -44.09375 C 18.109375 -44.09375 16.53125 -42.519531 16.53125 -39.375 L 16.53125 -37.796875 C 16.53125 -34.648438 18.109375 -33.078125 21.265625 -33.078125 L 35.4375 -33.078125 C 40.582031 -33.078125 44.363281 -31.867188 46.78125 -29.453125 C 49.195312 -27.035156 50.40625 -23.253906 50.40625 -18.109375 L 50.40625 -14.171875 C 50.40625 -9.023438 49.195312 -5.242188 46.78125 -2.828125 C 44.363281 -0.421875 40.582031 0.78125 35.4375 0.78125 C 32.757812 0.78125 29.925781 0.726562 26.9375 0.625 L 19.6875 0.3125 C 14.332031 0.0507812 8.796875 -0.3125 3.078125 -0.78125 Z M 3.078125 -11.421875 "/></g></g></g><g fill="#ffffff" fill-opacity="1"><g transform="translate(2587.780559, 1939.31526)"><g><path d="M 2.359375 -11.8125 L 16.53125 -11.8125 L 16.53125 -0.78125 L 11.03125 7.875 L 3.9375 7.875 L 7.09375 0 L 2.359375 0 Z M 2.359375 -11.8125 "/></g></g></g><g fill="#ffffff" fill-opacity="1"><g transform="translate(2649.838395, 1939.31526)"><g/></g></g><g fill="#39d5ff" fill-opacity="1"><g transform="translate(2716.62295, 1939.31526)"><g><path d="M 18.90625 0 L 4.71875 0 L 4.71875 -55.125 L 48.4375 -55.125 L 48.4375 -44.09375 L 18.90625 -44.09375 L 18.90625 -31.109375 L 42.125 -31.109375 L 42.125 -20.078125 L 18.90625 -20.078125 Z M 18.90625 0 "/></g></g></g><g fill="#39d5ff" fill-opacity="1"><g transform="translate(2809.000987, 1939.31526)"><g><path d="M 4.71875 -55.125 L 37.796875 -55.125 C 43.304688 -55.125 47.304688 -53.875 49.796875 -51.375 C 52.296875 -48.882812 53.546875 -44.882812 53.546875 -39.375 L 53.546875 -32.28125 C 53.546875 -27.925781 52.820312 -24.539062 51.375 -22.125 C 49.9375 -19.707031 47.644531 -18.109375 44.5 -17.328125 L 54.34375 0 L 38.984375 0 L 29.921875 -16.53125 L 18.90625 -16.53125 L 18.90625 0 L 4.71875 0 Z M 39.375 -39.375 C 39.375 -42.519531 37.800781 -44.09375 34.65625 -44.09375 L 18.90625 -44.09375 L 18.90625 -27.5625 L 34.65625 -27.5625 C 37.800781 -27.5625 39.375 -29.132812 39.375 -32.28125 Z M 39.375 -39.375 "/></g></g></g><g fill="#39d5ff" fill-opacity="1"><g transform="translate(2908.860692, 1939.31526)"><g><path d="M 14.5625 0 L -0.78125 0 L 20.078125 -55.125 L 35.828125 -55.125 L 56.703125 0 L 41.34375 0 L 37.796875 -9.84375 L 18.109375 -9.84375 Z M 21.65625 -20.078125 L 34.25 -20.078125 L 27.953125 -38.59375 Z M 21.65625 -20.078125 "/></g></g></g><g fill="#39d5ff" fill-opacity="1"><g transform="translate(3007.932896, 1939.31526)"><g><path d="M 47.25 -0.78125 C 35.539062 0.257812 25.828125 0.78125 18.109375 0.78125 C 12.960938 0.78125 9.179688 -0.421875 6.765625 -2.828125 C 4.359375 -5.242188 3.15625 -9.023438 3.15625 -14.171875 L 3.15625 -39.375 C 3.15625 -44.882812 4.398438 -48.882812 6.890625 -51.375 C 9.378906 -53.875 13.382812 -55.125 18.90625 -55.125 L 47.25 -55.125 L 47.25 -44.09375 L 22.046875 -44.09375 C 18.898438 -44.09375 17.328125 -42.519531 17.328125 -39.375 L 17.328125 -14.171875 C 17.328125 -12.960938 17.679688 -12.003906 18.390625 -11.296875 C 19.097656 -10.585938 20.003906 -10.234375 21.109375 -10.234375 C 22.210938 -10.234375 23.421875 -10.242188 24.734375 -10.265625 C 26.046875 -10.296875 27.410156 -10.335938 28.828125 -10.390625 C 30.242188 -10.441406 31.671875 -10.492188 33.109375 -10.546875 C 34.554688 -10.597656 36.421875 -10.703125 38.703125 -10.859375 C 40.984375 -11.023438 43.832031 -11.210938 47.25 -11.421875 Z M 47.25 -0.78125 "/></g></g></g><g fill="#39d5ff" fill-opacity="1"><g transform="translate(3099.917181, 1939.31526)"><g><path d="M 31.5 0 L 17.328125 0 L 17.328125 -44.09375 L 0.78125 -44.09375 L 0.78125 -55.125 L 48.03125 -55.125 L 48.03125 -44.09375 L 31.5 -44.09375 Z M 31.5 0 "/></g></g></g><g fill="#39d5ff" fill-opacity="1"><g transform="translate(3191.901492, 1939.31526)"><g><path d="M 30.71875 0 L 2.359375 0 L 2.359375 -11.03125 L 9.453125 -11.03125 L 9.453125 -44.09375 L 2.359375 -44.09375 L 2.359375 -55.125 L 30.71875 -55.125 L 30.71875 -44.09375 L 23.625 -44.09375 L 23.625 -11.03125 L 30.71875 -11.03125 Z M 30.71875 0 "/></g></g></g><g fill="#39d5ff" fill-opacity="1"><g transform="translate(3268.135063, 1939.31526)"><g><path d="M 40.15625 -40.15625 C 40.15625 -43.3125 38.582031 -44.890625 35.4375 -44.890625 L 22.046875 -44.890625 C 18.898438 -44.890625 17.328125 -43.3125 17.328125 -40.15625 L 17.328125 -14.96875 C 17.328125 -11.8125 18.898438 -10.234375 22.046875 -10.234375 L 35.4375 -10.234375 C 38.582031 -10.234375 40.15625 -11.8125 40.15625 -14.96875 Z M 54.34375 -14.96875 C 54.34375 -9.445312 53.09375 -5.441406 50.59375 -2.953125 C 48.101562 -0.460938 44.101562 0.78125 38.59375 0.78125 L 18.90625 0.78125 C 13.382812 0.78125 9.378906 -0.460938 6.890625 -2.953125 C 4.398438 -5.441406 3.15625 -9.445312 3.15625 -14.96875 L 3.15625 -40.15625 C 3.15625 -45.675781 4.398438 -49.679688 6.890625 -52.171875 C 9.378906 -54.660156 13.382812 -55.90625 18.90625 -55.90625 L 38.59375 -55.90625 C 44.101562 -55.90625 48.101562 -54.660156 50.59375 -52.171875 C 53.09375 -49.679688 54.34375 -45.675781 54.34375 -40.15625 Z M 54.34375 -14.96875 "/></g></g></g><g fill="#39d5ff" fill-opacity="1"><g transform="translate(3368.782296, 1939.31526)"><g><path d="M 52.765625 0 L 37.796875 0 L 18.90625 -33.078125 L 18.90625 0 L 4.71875 0 L 4.71875 -55.125 L 19.6875 -55.125 L 38.59375 -22.046875 L 38.59375 -55.125 L 52.765625 -55.125 Z M 52.765625 0 "/></g></g></g><g fill="#39d5ff" fill-opacity="1"><g transform="translate(1938.830608, 2044.319789)"><g><path d="M 4.71875 -55.125 L 36.21875 -55.125 C 41.363281 -55.125 45.144531 -53.953125 47.5625 -51.609375 C 49.976562 -49.273438 51.1875 -45.722656 51.1875 -40.953125 C 51.1875 -37.796875 50.503906 -35.234375 49.140625 -33.265625 C 47.773438 -31.296875 46.09375 -29.921875 44.09375 -29.140625 C 48.351562 -27.984375 51.242188 -25.144531 52.765625 -20.625 C 53.285156 -19 53.546875 -17.113281 53.546875 -14.96875 C 53.546875 -9.820312 52.335938 -6.039062 49.921875 -3.625 C 47.515625 -1.207031 43.738281 0 38.59375 0 L 4.71875 0 Z M 39.375 -17.328125 C 39.375 -20.472656 37.800781 -22.046875 34.65625 -22.046875 L 18.90625 -22.046875 L 18.90625 -11.03125 L 34.65625 -11.03125 C 37.800781 -11.03125 39.375 -12.601562 39.375 -15.75 Z M 37.015625 -39.375 C 37.015625 -42.519531 35.4375 -44.09375 32.28125 -44.09375 L 18.90625 -44.09375 L 18.90625 -33.078125 L 32.28125 -33.078125 C 35.4375 -33.078125 37.015625 -34.648438 37.015625 -37.796875 Z M 37.015625 -39.375 "/></g></g></g><g fill="#39d5ff" fill-opacity="1"><g transform="translate(2037.902812, 2044.319789)"><g><path d="M -1.578125 -55.125 L 13.390625 -55.125 L 26.375 -28.34375 L 39.375 -55.125 L 54.34375 -55.125 L 33.46875 -14.5625 L 33.46875 0 L 19.296875 0 L 19.296875 -14.5625 Z M -1.578125 -55.125 "/></g></g></g><g fill="#39d5ff" fill-opacity="1"><g transform="translate(2133.824807, 2044.319789)"><g/></g></g><g fill="#39d5ff" fill-opacity="1"><g transform="translate(2200.60783, 2044.319789)"><g><path d="M 18.90625 0 L 4.71875 0 L 4.71875 -55.125 L 48.4375 -55.125 L 48.4375 -44.09375 L 18.90625 -44.09375 L 18.90625 -31.109375 L 42.125 -31.109375 L 42.125 -20.078125 L 18.90625 -20.078125 Z M 18.90625 0 "/></g></g></g><g fill="#39d5ff" fill-opacity="1"><g transform="translate(2292.985867, 2044.319789)"><g><path d="M 4.71875 -55.125 L 37.796875 -55.125 C 43.304688 -55.125 47.304688 -53.875 49.796875 -51.375 C 52.296875 -48.882812 53.546875 -44.882812 53.546875 -39.375 L 53.546875 -32.28125 C 53.546875 -27.925781 52.820312 -24.539062 51.375 -22.125 C 49.9375 -19.707031 47.644531 -18.109375 44.5 -17.328125 L 54.34375 0 L 38.984375 0 L 29.921875 -16.53125 L 18.90625 -16.53125 L 18.90625 0 L 4.71875 0 Z M 39.375 -39.375 C 39.375 -42.519531 37.800781 -44.09375 34.65625 -44.09375 L 18.90625 -44.09375 L 18.90625 -27.5625 L 34.65625 -27.5625 C 37.800781 -27.5625 39.375 -29.132812 39.375 -32.28125 Z M 39.375 -39.375 "/></g></g></g><g fill="#39d5ff" fill-opacity="1"><g transform="translate(2392.845598, 2044.319789)"><g><path d="M 14.5625 0 L -0.78125 0 L 20.078125 -55.125 L 35.828125 -55.125 L 56.703125 0 L 41.34375 0 L 37.796875 -9.84375 L 18.109375 -9.84375 Z M 21.65625 -20.078125 L 34.25 -20.078125 L 27.953125 -38.59375 Z M 21.65625 -20.078125 "/></g></g></g><g fill="#39d5ff" fill-opacity="1"><g transform="translate(2491.917826, 2044.319789)"><g><path d="M 47.25 -0.78125 C 35.539062 0.257812 25.828125 0.78125 18.109375 0.78125 C 12.960938 0.78125 9.179688 -0.421875 6.765625 -2.828125 C 4.359375 -5.242188 3.15625 -9.023438 3.15625 -14.171875 L 3.15625 -39.375 C 3.15625 -44.882812 4.398438 -48.882812 6.890625 -51.375 C 9.378906 -53.875 13.382812 -55.125 18.90625 -55.125 L 47.25 -55.125 L 47.25 -44.09375 L 22.046875 -44.09375 C 18.898438 -44.09375 17.328125 -42.519531 17.328125 -39.375 L 17.328125 -14.171875 C 17.328125 -12.960938 17.679688 -12.003906 18.390625 -11.296875 C 19.097656 -10.585938 20.003906 -10.234375 21.109375 -10.234375 C 22.210938 -10.234375 23.421875 -10.242188 24.734375 -10.265625 C 26.046875 -10.296875 27.410156 -10.335938 28.828125 -10.390625 C 30.242188 -10.441406 31.671875 -10.492188 33.109375 -10.546875 C 34.554688 -10.597656 36.421875 -10.703125 38.703125 -10.859375 C 40.984375 -11.023438 43.832031 -11.210938 47.25 -11.421875 Z M 47.25 -0.78125 "/></g></g></g><g fill="#39d5ff" fill-opacity="1"><g transform="translate(2583.902137, 2044.319789)"><g><path d="M 31.5 0 L 17.328125 0 L 17.328125 -44.09375 L 0.78125 -44.09375 L 0.78125 -55.125 L 48.03125 -55.125 L 48.03125 -44.09375 L 31.5 -44.09375 Z M 31.5 0 "/></g></g></g><g fill="#39d5ff" fill-opacity="1"><g transform="translate(2675.886448, 2044.319789)"><g><path d="M 30.71875 0 L 2.359375 0 L 2.359375 -11.03125 L 9.453125 -11.03125 L 9.453125 -44.09375 L 2.359375 -44.09375 L 2.359375 -55.125 L 30.71875 -55.125 L 30.71875 -44.09375 L 23.625 -44.09375 L 23.625 -11.03125 L 30.71875 -11.03125 Z M 30.71875 0 "/></g></g></g><g fill="#39d5ff" fill-opacity="1"><g transform="translate(2752.120019, 2044.319789)"><g><path d="M 40.15625 -40.15625 C 40.15625 -43.3125 38.582031 -44.890625 35.4375 -44.890625 L 22.046875 -44.890625 C 18.898438 -44.890625 17.328125 -43.3125 17.328125 -40.15625 L 17.328125 -14.96875 C 17.328125 -11.8125 18.898438 -10.234375 22.046875 -10.234375 L 35.4375 -10.234375 C 38.582031 -10.234375 40.15625 -11.8125 40.15625 -14.96875 Z M 54.34375 -14.96875 C 54.34375 -9.445312 53.09375 -5.441406 50.59375 -2.953125 C 48.101562 -0.460938 44.101562 0.78125 38.59375 0.78125 L 18.90625 0.78125 C 13.382812 0.78125 9.378906 -0.460938 6.890625 -2.953125 C 4.398438 -5.441406 3.15625 -9.445312 3.15625 -14.96875 L 3.15625 -40.15625 C 3.15625 -45.675781 4.398438 -49.679688 6.890625 -52.171875 C 9.378906 -54.660156 13.382812 -55.90625 18.90625 -55.90625 L 38.59375 -55.90625 C 44.101562 -55.90625 48.101562 -54.660156 50.59375 -52.171875 C 53.09375 -49.679688 54.34375 -45.675781 54.34375 -40.15625 Z M 54.34375 -14.96875 "/></g></g></g><g fill="#39d5ff" fill-opacity="1"><g transform="translate(2852.767252, 2044.319789)"><g><path d="M 52.765625 0 L 37.796875 0 L 18.90625 -33.078125 L 18.90625 0 L 4.71875 0 L 4.71875 -55.125 L 19.6875 -55.125 L 38.59375 -22.046875 L 38.59375 -55.125 L 52.765625 -55.125 Z M 52.765625 0 "/></g></g></g><path stroke-linecap="round" transform="matrix(0, 0.75, -0.75, 0, 1362.765884, 836.81989)" fill="none" stroke-linejoin="miter" d="M 15.000565 15.000346 L 2321.948598 15.000346 " stroke="#39d5ff" stroke-width="30" stroke-opacity="1" stroke-miterlimit="4"/><path fill="#00aeef" d="M 1051.121094 1715.566406 L 751.992188 1416.464844 L 665.722656 1502.726562 C 665.722656 1502.726562 665.6875 1502.761719 665.6875 1502.761719 L 452.859375 1715.566406 L 665.6875 1928.371094 C 665.722656 1928.40625 665.722656 1928.40625 665.753906 1928.441406 L 751.992188 2014.667969 Z M 1051.121094 1715.566406 " fill-opacity="1" fill-rule="nonzero"/><path fill="#33bef2" d="M 452.859375 1715.566406 L 269.03125 1899.375 C 221.382812 1947.019531 221.382812 2024.289062 269.03125 2071.933594 L 481.859375 2284.738281 L 751.992188 2014.632812 L 665.753906 1928.40625 C 665.753906 1928.371094 665.722656 1928.371094 665.6875 1928.335938 Z M 452.859375 1715.566406 " fill-opacity="1" fill-rule="nonzero"/><path fill="#66cef5" d="M 751.992188 2014.632812 L 481.859375 2284.738281 L 665.6875 2468.546875 C 713.335938 2516.191406 790.609375 2516.191406 838.261719 2468.546875 L 1022.085938 2284.738281 Z M 751.992188 2014.632812 " fill-opacity="1" fill-rule="nonzero"/><path fill="#99dff9" d="M 751.992188 2014.632812 L 1022.121094 2284.703125 L 1234.949219 2071.898438 C 1282.597656 2024.253906 1282.597656 1946.984375 1234.949219 1899.339844 L 1051.121094 1715.53125 Z M 751.992188 2014.632812 " fill-opacity="1" fill-rule="nonzero"/><path fill="#002c3c" d="M 751.992188 1416.464844 L 481.859375 1146.359375 L 269.03125 1359.167969 C 221.382812 1406.8125 221.382812 1484.078125 269.03125 1531.722656 L 444.453125 1707.128906 L 452.859375 1715.53125 L 665.6875 1502.726562 C 665.6875 1502.726562 665.722656 1502.726562 665.722656 1502.691406 Z M 751.992188 1416.464844 " fill-opacity="1" fill-rule="nonzero"/><path fill="#005778" d="M 751.992188 1416.464844 L 1022.121094 1146.359375 L 838.296875 962.550781 C 790.644531 914.90625 713.371094 914.871094 665.722656 962.550781 L 481.894531 1146.359375 Z M 751.992188 1416.464844 " fill-opacity="1" fill-rule="nonzero"/><path fill="#0083b3" d="M 1234.914062 1359.167969 L 1022.085938 1146.359375 L 751.992188 1416.464844 L 1051.121094 1715.566406 L 1234.914062 1531.757812 C 1282.597656 1484.078125 1282.597656 1406.847656 1234.914062 1359.167969 Z M 1234.914062 1359.167969 " fill-opacity="1" fill-rule="nonzero"/><g clip-path="url(#c6f3427585)"><path stroke-linecap="butt" transform="matrix(0, 0.75, -0.75, 0, 1283.223, 915.01107)" fill="none" stroke-linejoin="miter" d="M 0.000865399 0.000458092 L 0.000865399 1416.578655 L 2134.579098 1416.578655 L 2134.579098 0.000458092 L 0.000865399 0.000458092 " stroke="#000000" stroke-width="8" stroke-opacity="1" stroke-miterlimit="4"/></g><g fill="#39d5ff" fill-opacity="1"><g transform="translate(3032.687671, 1744.975287)"><g><path d="M 66.90625 0 L 5.203125 0 L 95.453125 -156.734375 L 9.59375 -304.71875 L 73.578125 -304.71875 L 136.734375 -195.5 L 141.9375 -195.5 L 206.140625 -304.71875 L 267 -304.71875 L 181.125 -156.734375 L 271.375 0 L 207.59375 0 L 139.859375 -117.546875 L 134.640625 -117.546875 Z M 66.90625 0 "/></g></g></g><g fill="#ffffff" fill-opacity="1"><g transform="translate(1425.158431, 1786.61869)"><g><path d="M 87.125 22.921875 L 0 22.921875 L 0 9.6875 L 87.125 9.6875 Z M 87.125 22.921875 "/></g></g></g><g fill="#ffffff" fill-opacity="1"><g transform="translate(1512.181149, 1786.61869)"><g><path d="M 87.125 22.921875 L 0 22.921875 L 0 9.6875 L 87.125 9.6875 Z M 87.125 22.921875 "/></g></g></g><g fill="#ffffff" fill-opacity="1"><g transform="translate(1599.203868, 1786.61869)"><g><path d="M 87.125 22.921875 L 0 22.921875 L 0 9.6875 L 87.125 9.6875 Z M 87.125 22.921875 "/></g></g></g><g fill="#ffffff" fill-opacity="1"><g transform="translate(1686.226587, 1786.61869)"><g><path d="M 87.125 22.921875 L 0 22.921875 L 0 9.6875 L 87.125 9.6875 Z M 87.125 22.921875 "/></g></g></g><g fill="#ffffff" fill-opacity="1"><g transform="translate(1773.249305, 1786.61869)"><g><path d="M 87.125 22.921875 L 0 22.921875 L 0 9.6875 L 87.125 9.6875 Z M 87.125 22.921875 "/></g></g></g><g fill="#ffffff" fill-opacity="1"><g transform="translate(1860.272024, 1786.61869)"><g><path d="M 87.125 22.921875 L 0 22.921875 L 0 9.6875 L 87.125 9.6875 Z M 87.125 22.921875 "/></g></g></g><g fill="#ffffff" fill-opacity="1"><g transform="translate(1947.294742, 1786.61869)"><g><path d="M 87.125 22.921875 L 0 22.921875 L 0 9.6875 L 87.125 9.6875 Z M 87.125 22.921875 "/></g></g></g><g fill="#ffffff" fill-opacity="1"><g transform="translate(2034.317461, 1786.61869)"><g><path d="M 87.125 22.921875 L 0 22.921875 L 0 9.6875 L 87.125 9.6875 Z M 87.125 22.921875 "/></g></g></g><g fill="#ffffff" fill-opacity="1"><g transform="translate(2121.34018, 1786.61869)"><g><path d="M 87.125 22.921875 L 0 22.921875 L 0 9.6875 L 87.125 9.6875 Z M 87.125 22.921875 "/></g></g></g><g fill="#ffffff" fill-opacity="1"><g transform="translate(2208.362898, 1786.61869)"><g><path d="M 87.125 22.921875 L 0 22.921875 L 0 9.6875 L 87.125 9.6875 Z M 87.125 22.921875 "/></g></g></g><g fill="#ffffff" fill-opacity="1"><g transform="translate(2295.385617, 1786.61869)"><g><path d="M 87.125 22.921875 L 0 22.921875 L 0 9.6875 L 87.125 9.6875 Z M 87.125 22.921875 "/></g></g></g><g fill="#ffffff" fill-opacity="1"><g transform="translate(2382.408335, 1786.61869)"><g><path d="M 87.125 22.921875 L 0 22.921875 L 0 9.6875 L 87.125 9.6875 Z M 87.125 22.921875 "/></g></g></g><g fill="#ffffff" fill-opacity="1"><g transform="translate(2469.431054, 1786.61869)"><g><path d="M 87.125 22.921875 L 0 22.921875 L 0 9.6875 L 87.125 9.6875 Z M 87.125 22.921875 "/></g></g></g><g fill="#ffffff" fill-opacity="1"><g transform="translate(2556.453773, 1786.61869)"><g><path d="M 87.125 22.921875 L 0 22.921875 L 0 9.6875 L 87.125 9.6875 Z M 87.125 22.921875 "/></g></g></g><g fill="#ffffff" fill-opacity="1"><g transform="translate(2643.476491, 1786.61869)"><g><path d="M 87.125 22.921875 L 0 22.921875 L 0 9.6875 L 87.125 9.6875 Z M 87.125 22.921875 "/></g></g></g><g fill="#ffffff" fill-opacity="1"><g transform="translate(2730.49921, 1786.61869)"><g><path d="M 87.125 22.921875 L 0 22.921875 L 0 9.6875 L 87.125 9.6875 Z M 87.125 22.921875 "/></g></g></g><g fill="#ffffff" fill-opacity="1"><g transform="translate(2817.521929, 1786.61869)"><g><path d="M 87.125 22.921875 L 0 22.921875 L 0 9.6875 L 87.125 9.6875 Z M 87.125 22.921875 "/></g></g></g><g fill="#ffffff" fill-opacity="1"><g transform="translate(2904.544647, 1786.61869)"><g><path d="M 87.125 22.921875 L 0 22.921875 L 0 9.6875 L 87.125 9.6875 Z M 87.125 22.921875 "/></g></g></g><g fill="#ffffff" fill-opacity="1"><g transform="translate(2991.567366, 1786.61869)"><g><path d="M 87.125 22.921875 L 0 22.921875 L 0 9.6875 L 87.125 9.6875 Z M 87.125 22.921875 "/></g></g></g><g fill="#ffffff" fill-opacity="1"><g transform="translate(3078.590084, 1786.61869)"><g><path d="M 87.125 22.921875 L 0 22.921875 L 0 9.6875 L 87.125 9.6875 Z M 87.125 22.921875 "/></g></g></g><g fill="#ffffff" fill-opacity="1"><g transform="translate(3165.612803, 1786.61869)"><g><path d="M 87.125 22.921875 L 0 22.921875 L 0 9.6875 L 87.125 9.6875 Z M 87.125 22.921875 "/></g></g></g><g fill="#ffffff" fill-opacity="1"><g transform="translate(3252.635522, 1786.61869)"><g><path d="M 87.125 22.921875 L 0 22.921875 L 0 9.6875 L 87.125 9.6875 Z M 87.125 22.921875 "/></g></g></g></svg>