<svg xmlns="http://www.w3.org/2000/svg" xmlns:xlink="http://www.w3.org/1999/xlink" width="5000" zoomAndPan="magnify" viewBox="0 0 3750 3749.999967" height="5000" preserveAspectRatio="xMidYMid meet" version="1.0"><defs><g/><clipPath id="89b2c8e9e5"><path d="M 53.398438 907.273438 L 1082.1875 907.273438 L 1082.1875 2457.5 L 53.398438 2457.5 Z M 53.398438 907.273438 " clip-rule="nonzero"/></clipPath></defs><g fill="#ffffff" fill-opacity="1"><g transform="translate(1119.700441, 1767.137939)"><g><path d="M 63.375 0 L 15.84375 0 L 15.84375 -184.859375 L 162.421875 -184.859375 L 162.421875 -147.890625 L 63.375 -147.890625 L 63.375 -104.3125 L 141.296875 -104.3125 L 141.296875 -67.34375 L 63.375 -67.34375 Z M 63.375 0 "/></g></g></g><g fill="#ffffff" fill-opacity="1"><g transform="translate(1337.574425, 1767.137939)"><g><path d="M 15.84375 -184.859375 L 126.765625 -184.859375 C 145.253906 -184.859375 158.675781 -180.675781 167.03125 -172.3125 C 175.394531 -163.957031 179.578125 -150.535156 179.578125 -132.046875 L 179.578125 -108.28125 C 179.578125 -93.664062 177.15625 -82.304688 172.3125 -74.203125 C 167.476562 -66.109375 159.78125 -60.738281 149.21875 -58.09375 L 182.21875 0 L 130.71875 0 L 100.359375 -55.453125 L 63.375 -55.453125 L 63.375 0 L 15.84375 0 Z M 132.046875 -132.046875 C 132.046875 -142.609375 126.765625 -147.890625 116.203125 -147.890625 L 63.375 -147.890625 L 63.375 -92.4375 L 116.203125 -92.4375 C 126.765625 -92.4375 132.046875 -97.71875 132.046875 -108.28125 Z M 132.046875 -132.046875 "/></g></g></g><g fill="#ffffff" fill-opacity="1"><g transform="translate(1580.536875, 1767.137939)"><g><path d="M 48.859375 0 L -2.640625 0 L 67.34375 -184.859375 L 120.15625 -184.859375 L 190.140625 0 L 138.65625 0 L 126.765625 -33.015625 L 60.734375 -33.015625 Z M 72.625 -67.34375 L 114.875 -67.34375 L 93.75 -129.40625 Z M 72.625 -67.34375 "/></g></g></g><g fill="#ffffff" fill-opacity="1"><g transform="translate(1820.85844, 1767.137939)"><g><path d="M 158.453125 -2.640625 C 119.191406 0.878906 86.617188 2.640625 60.734375 2.640625 C 43.484375 2.640625 30.804688 -1.40625 22.703125 -9.5 C 14.609375 -17.601562 10.5625 -30.28125 10.5625 -47.53125 L 10.5625 -132.046875 C 10.5625 -150.535156 14.742188 -163.957031 23.109375 -172.3125 C 31.472656 -180.675781 44.894531 -184.859375 63.375 -184.859375 L 158.453125 -184.859375 L 158.453125 -147.890625 L 73.953125 -147.890625 C 63.378906 -147.890625 58.09375 -142.609375 58.09375 -132.046875 L 58.09375 -47.53125 C 58.09375 -43.488281 59.28125 -40.273438 61.65625 -37.890625 C 64.039062 -35.515625 67.082031 -34.328125 70.78125 -34.328125 C 74.476562 -34.328125 78.523438 -34.367188 82.921875 -34.453125 C 87.328125 -34.546875 91.90625 -34.679688 96.65625 -34.859375 C 101.40625 -35.035156 106.203125 -35.210938 111.046875 -35.390625 C 115.890625 -35.566406 122.140625 -35.914062 129.796875 -36.4375 C 137.460938 -36.96875 147.015625 -37.585938 158.453125 -38.296875 Z M 158.453125 -2.640625 "/></g></g></g><g fill="#ffffff" fill-opacity="1"><g transform="translate(2037.412004, 1767.137939)"><g><path d="M 105.640625 0 L 58.09375 0 L 58.09375 -147.890625 L 2.640625 -147.890625 L 2.640625 -184.859375 L 161.09375 -184.859375 L 161.09375 -147.890625 L 105.640625 -147.890625 Z M 105.640625 0 "/></g></g></g><g fill="#ffffff" fill-opacity="1"><g transform="translate(2253.965523, 1767.137939)"><g><path d="M 103 0 L 7.921875 0 L 7.921875 -36.96875 L 31.6875 -36.96875 L 31.6875 -147.890625 L 7.921875 -147.890625 L 7.921875 -184.859375 L 103 -184.859375 L 103 -147.890625 L 79.234375 -147.890625 L 79.234375 -36.96875 L 103 -36.96875 Z M 103 0 "/></g></g></g><g fill="#ffffff" fill-opacity="1"><g transform="translate(2417.701172, 1767.137939)"><g><path d="M 134.6875 -134.6875 C 134.6875 -145.25 129.40625 -150.53125 118.84375 -150.53125 L 73.953125 -150.53125 C 63.378906 -150.53125 58.09375 -145.25 58.09375 -134.6875 L 58.09375 -50.171875 C 58.09375 -39.609375 63.378906 -34.328125 73.953125 -34.328125 L 118.84375 -34.328125 C 129.40625 -34.328125 134.6875 -39.609375 134.6875 -50.171875 Z M 182.21875 -50.171875 C 182.21875 -31.691406 178.035156 -18.269531 169.671875 -9.90625 C 161.316406 -1.539062 147.894531 2.640625 129.40625 2.640625 L 63.375 2.640625 C 44.894531 2.640625 31.472656 -1.539062 23.109375 -9.90625 C 14.742188 -18.269531 10.5625 -31.691406 10.5625 -50.171875 L 10.5625 -134.6875 C 10.5625 -153.175781 14.742188 -166.597656 23.109375 -174.953125 C 31.472656 -183.316406 44.894531 -187.5 63.375 -187.5 L 129.40625 -187.5 C 147.894531 -187.5 161.316406 -183.316406 169.671875 -174.953125 C 178.035156 -166.597656 182.21875 -153.175781 182.21875 -134.6875 Z M 182.21875 -50.171875 "/></g></g></g><g fill="#ffffff" fill-opacity="1"><g transform="translate(2663.304552, 1767.137939)"><g><path d="M 176.9375 0 L 126.765625 0 L 63.375 -110.921875 L 63.375 0 L 15.84375 0 L 15.84375 -184.859375 L 66.015625 -184.859375 L 129.40625 -73.953125 L 129.40625 -184.859375 L 176.9375 -184.859375 Z M 176.9375 0 "/></g></g></g><g fill="#ffffff" fill-opacity="1"><g transform="translate(2908.907933, 1767.137939)"><g><path d="M 48.859375 0 L -2.640625 0 L 67.34375 -184.859375 L 120.15625 -184.859375 L 190.140625 0 L 138.65625 0 L 126.765625 -33.015625 L 60.734375 -33.015625 Z M 72.625 -67.34375 L 114.875 -67.34375 L 93.75 -129.40625 Z M 72.625 -67.34375 "/></g></g></g><path stroke-linecap="round" transform="matrix(0, 0.75, -0.75, 0, 1104.686553, 907.275174)" fill="none" stroke-linejoin="miter" d="M 14.997685 14.998738 L 2321.945719 14.998738 " stroke="#39d5ff" stroke-width="30" stroke-opacity="1" stroke-miterlimit="4"/><path fill="#00aeef" d="M 857.359375 1682.332031 L 567.730469 1392.757812 L 484.199219 1476.269531 C 484.199219 1476.269531 484.164062 1476.304688 484.164062 1476.304688 L 278.097656 1682.332031 L 484.164062 1888.359375 C 484.199219 1888.390625 484.199219 1888.390625 484.234375 1888.425781 L 567.730469 1971.90625 Z M 857.359375 1682.332031 " fill-opacity="1" fill-rule="nonzero"/><path fill="#33bef2" d="M 278.097656 1682.332031 L 100.109375 1860.285156 C 53.972656 1906.414062 53.972656 1981.21875 100.109375 2027.347656 L 306.175781 2233.375 L 567.730469 1971.871094 L 484.234375 1888.394531 C 484.234375 1888.359375 484.199219 1888.359375 484.164062 1888.324219 Z M 278.097656 1682.332031 " fill-opacity="1" fill-rule="nonzero"/><path fill="#66cef5" d="M 567.730469 1971.871094 L 306.175781 2233.375 L 484.164062 2411.328125 C 530.300781 2457.457031 605.121094 2457.457031 651.257812 2411.328125 L 829.246094 2233.375 Z M 567.730469 1971.871094 " fill-opacity="1" fill-rule="nonzero"/><path fill="#99dff9" d="M 567.730469 1971.871094 L 829.28125 2233.339844 L 1035.347656 2027.3125 C 1081.484375 1981.1875 1081.484375 1906.378906 1035.347656 1860.253906 L 857.359375 1682.296875 Z M 567.730469 1971.871094 " fill-opacity="1" fill-rule="nonzero"/><path fill="#002c3c" d="M 567.730469 1392.757812 L 306.175781 1131.253906 L 100.109375 1337.28125 C 53.972656 1383.410156 53.972656 1458.214844 100.109375 1504.34375 L 269.960938 1674.160156 L 278.097656 1682.296875 L 484.164062 1476.269531 C 484.164062 1476.269531 484.199219 1476.269531 484.199219 1476.238281 Z M 567.730469 1392.757812 " fill-opacity="1" fill-rule="nonzero"/><path fill="#005778" d="M 567.730469 1392.757812 L 829.28125 1131.253906 L 651.292969 953.300781 C 605.15625 907.171875 530.335938 907.140625 484.199219 953.300781 L 306.210938 1131.253906 Z M 567.730469 1392.757812 " fill-opacity="1" fill-rule="nonzero"/><path fill="#0083b3" d="M 1035.3125 1337.28125 L 829.246094 1131.253906 L 567.730469 1392.757812 L 857.359375 1682.332031 L 1035.3125 1504.378906 C 1081.484375 1458.214844 1081.484375 1383.445312 1035.3125 1337.28125 Z M 1035.3125 1337.28125 " fill-opacity="1" fill-rule="nonzero"/><g clip-path="url(#89b2c8e9e5)"><path stroke-linecap="butt" transform="matrix(0, 0.75, -0.75, 0, 1082.185978, 907.273638)" fill="none" stroke-linejoin="miter" d="M -0.000267456 -0.00202934 L -0.000267456 1371.71679 L 2066.968455 1371.71679 L 2066.968455 -0.00202934 L -0.000267456 -0.00202934 " stroke="#000000" stroke-width="8" stroke-opacity="1" stroke-miterlimit="4"/></g><g fill="#39d5ff" fill-opacity="1"><g transform="translate(3136.396274, 1754.0811)"><g><path d="M 92.140625 0 L 7.171875 0 L 131.46875 -215.859375 L 13.203125 -419.65625 L 101.328125 -419.65625 L 188.296875 -269.25 L 195.46875 -269.25 L 283.890625 -419.65625 L 367.703125 -419.65625 L 249.4375 -215.859375 L 373.734375 0 L 285.890625 0 L 192.609375 -161.890625 L 185.421875 -161.890625 Z M 92.140625 0 "/></g></g></g><g fill="#ffffff" fill-opacity="1"><g transform="translate(1157.730267, 1787.117752)"><g><path d="M 107.640625 28.3125 L 0 28.3125 L 0 11.953125 L 107.640625 11.953125 Z M 107.640625 28.3125 "/></g></g><g transform="translate(1265.257113, 1787.117752)"><g><path d="M 107.640625 28.3125 L 0 28.3125 L 0 11.953125 L 107.640625 11.953125 Z M 107.640625 28.3125 "/></g></g><g transform="translate(1372.78396, 1787.117752)"><g><path d="M 107.640625 28.3125 L 0 28.3125 L 0 11.953125 L 107.640625 11.953125 Z M 107.640625 28.3125 "/></g></g><g transform="translate(1480.310807, 1787.117752)"><g><path d="M 107.640625 28.3125 L 0 28.3125 L 0 11.953125 L 107.640625 11.953125 Z M 107.640625 28.3125 "/></g></g><g transform="translate(1587.837654, 1787.117752)"><g><path d="M 107.640625 28.3125 L 0 28.3125 L 0 11.953125 L 107.640625 11.953125 Z M 107.640625 28.3125 "/></g></g><g transform="translate(1695.3645, 1787.117752)"><g><path d="M 107.640625 28.3125 L 0 28.3125 L 0 11.953125 L 107.640625 11.953125 Z M 107.640625 28.3125 "/></g></g><g transform="translate(1802.891347, 1787.117752)"><g><path d="M 107.640625 28.3125 L 0 28.3125 L 0 11.953125 L 107.640625 11.953125 Z M 107.640625 28.3125 "/></g></g><g transform="translate(1910.418194, 1787.117752)"><g><path d="M 107.640625 28.3125 L 0 28.3125 L 0 11.953125 L 107.640625 11.953125 Z M 107.640625 28.3125 "/></g></g><g transform="translate(2017.94504, 1787.117752)"><g><path d="M 107.640625 28.3125 L 0 28.3125 L 0 11.953125 L 107.640625 11.953125 Z M 107.640625 28.3125 "/></g></g><g transform="translate(2125.471887, 1787.117752)"><g><path d="M 107.640625 28.3125 L 0 28.3125 L 0 11.953125 L 107.640625 11.953125 Z M 107.640625 28.3125 "/></g></g><g transform="translate(2232.998734, 1787.117752)"><g><path d="M 107.640625 28.3125 L 0 28.3125 L 0 11.953125 L 107.640625 11.953125 Z M 107.640625 28.3125 "/></g></g><g transform="translate(2340.525581, 1787.117752)"><g><path d="M 107.640625 28.3125 L 0 28.3125 L 0 11.953125 L 107.640625 11.953125 Z M 107.640625 28.3125 "/></g></g><g transform="translate(2448.052427, 1787.117752)"><g><path d="M 107.640625 28.3125 L 0 28.3125 L 0 11.953125 L 107.640625 11.953125 Z M 107.640625 28.3125 "/></g></g><g transform="translate(2555.579274, 1787.117752)"><g><path d="M 107.640625 28.3125 L 0 28.3125 L 0 11.953125 L 107.640625 11.953125 Z M 107.640625 28.3125 "/></g></g><g transform="translate(2663.106121, 1787.117752)"><g><path d="M 107.640625 28.3125 L 0 28.3125 L 0 11.953125 L 107.640625 11.953125 Z M 107.640625 28.3125 "/></g></g><g transform="translate(2770.632967, 1787.117752)"><g><path d="M 107.640625 28.3125 L 0 28.3125 L 0 11.953125 L 107.640625 11.953125 Z M 107.640625 28.3125 "/></g></g><g transform="translate(2878.159814, 1787.117752)"><g><path d="M 107.640625 28.3125 L 0 28.3125 L 0 11.953125 L 107.640625 11.953125 Z M 107.640625 28.3125 "/></g></g><g transform="translate(2985.686661, 1787.117752)"><g><path d="M 107.640625 28.3125 L 0 28.3125 L 0 11.953125 L 107.640625 11.953125 Z M 107.640625 28.3125 "/></g></g><g transform="translate(3093.213508, 1787.117752)"><g><path d="M 107.640625 28.3125 L 0 28.3125 L 0 11.953125 L 107.640625 11.953125 Z M 107.640625 28.3125 "/></g></g><g transform="translate(3200.740354, 1787.117752)"><g><path d="M 107.640625 28.3125 L 0 28.3125 L 0 11.953125 L 107.640625 11.953125 Z M 107.640625 28.3125 "/></g></g><g transform="translate(3308.267201, 1787.117752)"><g><path d="M 107.640625 28.3125 L 0 28.3125 L 0 11.953125 L 107.640625 11.953125 Z M 107.640625 28.3125 "/></g></g><g transform="translate(3415.794048, 1787.117752)"><g><path d="M 107.640625 28.3125 L 0 28.3125 L 0 11.953125 L 107.640625 11.953125 Z M 107.640625 28.3125 "/></g></g></g></svg>