<svg xmlns="http://www.w3.org/2000/svg" xmlns:xlink="http://www.w3.org/1999/xlink" width="5000" zoomAndPan="magnify" viewBox="0 0 3750 3749.999967" height="5000" preserveAspectRatio="xMidYMid meet" version="1.0"><defs><clipPath id="b4c3edeba7"><path d="M 694.765625 35.921875 L 3101.960938 35.921875 L 3101.960938 3662.921875 L 694.765625 3662.921875 Z M 694.765625 35.921875 " clip-rule="nonzero"/></clipPath></defs><path fill="#00aeef" d="M 2575.757812 1849.265625 L 1898.121094 1171.769531 L 1702.691406 1367.160156 C 1702.691406 1367.160156 1702.613281 1367.238281 1702.613281 1367.238281 L 1220.484375 1849.265625 L 1702.613281 2331.289062 C 1702.691406 2331.371094 1702.691406 2331.371094 1702.769531 2331.449219 L 1898.121094 2526.761719 Z M 2575.757812 1849.265625 " fill-opacity="1" fill-rule="nonzero"/><path fill="#33bef2" d="M 1220.484375 1849.265625 L 804.054688 2265.609375 C 696.109375 2373.53125 696.109375 2548.550781 804.054688 2656.46875 L 1286.179688 3138.496094 L 1898.121094 2526.683594 L 1702.769531 2331.371094 C 1702.769531 2331.289062 1702.691406 2331.289062 1702.613281 2331.210938 Z M 1220.484375 1849.265625 " fill-opacity="1" fill-rule="nonzero"/><path fill="#66cef5" d="M 1898.121094 2526.683594 L 1286.179688 3138.496094 L 1702.613281 3554.84375 C 1810.554688 3662.765625 1985.609375 3662.765625 2093.554688 3554.84375 L 2509.984375 3138.496094 Z M 1898.121094 2526.683594 " fill-opacity="1" fill-rule="nonzero"/><path fill="#99dff9" d="M 1898.121094 2526.683594 L 2510.0625 3138.417969 L 2992.191406 2656.390625 C 3100.132812 2548.46875 3100.132812 2373.453125 2992.191406 2265.53125 L 2575.757812 1849.1875 Z M 1898.121094 2526.683594 " fill-opacity="1" fill-rule="nonzero"/><path fill="#002c3c" d="M 1898.121094 1171.769531 L 1286.179688 559.953125 L 804.054688 1041.980469 C 696.109375 1149.902344 696.109375 1324.917969 804.054688 1432.839844 L 1201.445312 1830.148438 L 1220.484375 1849.1875 L 1702.613281 1367.160156 C 1702.613281 1367.160156 1702.691406 1367.160156 1702.691406 1367.082031 Z M 1898.121094 1171.769531 " fill-opacity="1" fill-rule="nonzero"/><path fill="#005778" d="M 1898.121094 1171.769531 L 2510.0625 559.953125 L 2093.632812 143.605469 C 1985.6875 35.6875 1810.632812 35.605469 1702.691406 143.605469 L 1286.257812 559.953125 Z M 1898.121094 1171.769531 " fill-opacity="1" fill-rule="nonzero"/><path fill="#0083b3" d="M 2992.113281 1041.980469 L 2509.984375 559.953125 L 1898.121094 1171.769531 L 2575.757812 1849.265625 L 2992.113281 1432.917969 C 3100.132812 1324.917969 3100.132812 1149.980469 2992.113281 1041.980469 Z M 2992.113281 1041.980469 " fill-opacity="1" fill-rule="nonzero"/><g clip-path="url(#b4c3edeba7)"><path stroke-linecap="butt" transform="matrix(0, 0.75, -0.75, 0, 3101.960956, 35.921637)" fill="none" stroke-linejoin="miter" d="M 0.000316824 0.0000243877 L 0.000316824 3209.594142 L 4836.391187 3209.594142 L 4836.391187 0.0000243877 L 0.000316824 0.0000243877 " stroke="#000000" stroke-width="8" stroke-opacity="1" stroke-miterlimit="4"/></g></svg>