<svg xmlns="http://www.w3.org/2000/svg" xmlns:xlink="http://www.w3.org/1999/xlink" width="5000" zoomAndPan="magnify" viewBox="0 0 3750 3749.999967" height="5000" preserveAspectRatio="xMidYMid meet" version="1.0"><defs><g/></defs><g fill="#ffffff" fill-opacity="1"><g transform="translate(77.032793, 1860.174009)"><g><path d="M 99.28125 0 L 24.8125 0 L 24.8125 -289.5625 L 254.40625 -289.5625 L 254.40625 -231.640625 L 99.28125 -231.640625 L 99.28125 -163.390625 L 221.3125 -163.390625 L 221.3125 -105.484375 L 99.28125 -105.484375 Z M 99.28125 0 "/></g></g></g><g fill="#ffffff" fill-opacity="1"><g transform="translate(418.301224, 1860.174009)"><g><path d="M 24.8125 -289.5625 L 198.5625 -289.5625 C 227.507812 -289.5625 248.53125 -283.007812 261.625 -269.90625 C 274.726562 -256.8125 281.28125 -235.785156 281.28125 -206.828125 L 281.28125 -169.59375 C 281.28125 -146.707031 277.488281 -128.921875 269.90625 -116.234375 C 262.320312 -103.546875 250.257812 -95.132812 233.71875 -91 L 285.421875 0 L 204.765625 0 L 157.1875 -86.875 L 99.28125 -86.875 L 99.28125 0 L 24.8125 0 Z M 206.828125 -206.828125 C 206.828125 -223.367188 198.554688 -231.640625 182.015625 -231.640625 L 99.28125 -231.640625 L 99.28125 -144.78125 L 182.015625 -144.78125 C 198.554688 -144.78125 206.828125 -153.050781 206.828125 -169.59375 Z M 206.828125 -206.828125 "/></g></g></g><g fill="#ffffff" fill-opacity="1"><g transform="translate(798.867149, 1860.174009)"><g><path d="M 76.53125 0 L -4.140625 0 L 105.484375 -289.5625 L 188.21875 -289.5625 L 297.828125 0 L 217.171875 0 L 198.5625 -51.703125 L 95.140625 -51.703125 Z M 113.75 -105.484375 L 179.9375 -105.484375 L 146.84375 -202.6875 Z M 113.75 -105.484375 "/></g></g></g><g fill="#ffffff" fill-opacity="1"><g transform="translate(1175.296506, 1860.174009)"><g><path d="M 248.1875 -4.140625 C 186.695312 1.378906 135.679688 4.140625 95.140625 4.140625 C 68.117188 4.140625 48.265625 -2.203125 35.578125 -14.890625 C 22.890625 -27.578125 16.546875 -47.429688 16.546875 -74.453125 L 16.546875 -206.828125 C 16.546875 -235.785156 23.09375 -256.8125 36.1875 -269.90625 C 49.289062 -283.007812 70.320312 -289.5625 99.28125 -289.5625 L 248.1875 -289.5625 L 248.1875 -231.640625 L 115.828125 -231.640625 C 99.273438 -231.640625 91 -223.367188 91 -206.828125 L 91 -74.453125 C 91 -68.109375 92.859375 -63.078125 96.578125 -59.359375 C 100.304688 -55.640625 105.066406 -53.78125 110.859375 -53.78125 C 116.648438 -53.78125 122.992188 -53.847656 129.890625 -53.984375 C 136.785156 -54.117188 143.953125 -54.320312 151.390625 -54.59375 C 158.835938 -54.875 166.351562 -55.148438 173.9375 -55.421875 C 181.519531 -55.703125 191.3125 -56.253906 203.3125 -57.078125 C 215.3125 -57.910156 230.269531 -58.878906 248.1875 -59.984375 Z M 248.1875 -4.140625 "/></g></g></g><g fill="#ffffff" fill-opacity="1"><g transform="translate(1514.496688, 1860.174009)"><g><path d="M 165.46875 0 L 91 0 L 91 -231.640625 L 4.140625 -231.640625 L 4.140625 -289.5625 L 252.328125 -289.5625 L 252.328125 -231.640625 L 165.46875 -231.640625 Z M 165.46875 0 "/></g></g></g><g fill="#ffffff" fill-opacity="1"><g transform="translate(1853.6968, 1860.174009)"><g><path d="M 161.328125 0 L 12.40625 0 L 12.40625 -57.90625 L 49.640625 -57.90625 L 49.640625 -231.640625 L 12.40625 -231.640625 L 12.40625 -289.5625 L 161.328125 -289.5625 L 161.328125 -231.640625 L 124.09375 -231.640625 L 124.09375 -57.90625 L 161.328125 -57.90625 Z M 161.328125 0 "/></g></g></g><g fill="#ffffff" fill-opacity="1"><g transform="translate(2110.165274, 1860.174009)"><g><path d="M 210.96875 -210.96875 C 210.96875 -227.507812 202.691406 -235.78125 186.140625 -235.78125 L 115.828125 -235.78125 C 99.273438 -235.78125 91 -227.507812 91 -210.96875 L 91 -78.59375 C 91 -62.050781 99.273438 -53.78125 115.828125 -53.78125 L 186.140625 -53.78125 C 202.691406 -53.78125 210.96875 -62.050781 210.96875 -78.59375 Z M 285.421875 -78.59375 C 285.421875 -49.632812 278.867188 -28.601562 265.765625 -15.5 C 252.671875 -2.40625 231.644531 4.140625 202.6875 4.140625 L 99.28125 4.140625 C 70.320312 4.140625 49.289062 -2.40625 36.1875 -15.5 C 23.09375 -28.601562 16.546875 -49.632812 16.546875 -78.59375 L 16.546875 -210.96875 C 16.546875 -239.925781 23.09375 -260.953125 36.1875 -274.046875 C 49.289062 -287.148438 70.320312 -293.703125 99.28125 -293.703125 L 202.6875 -293.703125 C 231.644531 -293.703125 252.671875 -287.148438 265.765625 -274.046875 C 278.867188 -260.953125 285.421875 -239.925781 285.421875 -210.96875 Z M 285.421875 -78.59375 "/></g></g></g><g fill="#ffffff" fill-opacity="1"><g transform="translate(2494.867837, 1860.174009)"><g><path d="M 277.15625 0 L 198.5625 0 L 99.28125 -173.734375 L 99.28125 0 L 24.8125 0 L 24.8125 -289.5625 L 103.40625 -289.5625 L 202.6875 -115.828125 L 202.6875 -289.5625 L 277.15625 -289.5625 Z M 277.15625 0 "/></g></g></g><g fill="#ffffff" fill-opacity="1"><g transform="translate(2879.570401, 1860.174009)"><g><path d="M 76.53125 0 L -4.140625 0 L 105.484375 -289.5625 L 188.21875 -289.5625 L 297.828125 0 L 217.171875 0 L 198.5625 -51.703125 L 95.140625 -51.703125 Z M 113.75 -105.484375 L 179.9375 -105.484375 L 146.84375 -202.6875 Z M 113.75 -105.484375 "/></g></g></g><g fill="#39d5ff" fill-opacity="1"><g transform="translate(3182.757048, 1862.237057)"><g><path d="M 112.703125 0 L 8.78125 0 L 160.796875 -264.015625 L 16.15625 -513.265625 L 123.9375 -513.265625 L 230.3125 -329.3125 L 239.09375 -329.3125 L 347.21875 -513.265625 L 449.734375 -513.265625 L 305.09375 -264.015625 L 457.109375 0 L 349.671875 0 L 235.578125 -198.015625 L 226.796875 -198.015625 Z M 112.703125 0 "/></g></g></g></svg>