<svg xmlns="http://www.w3.org/2000/svg" xmlns:xlink="http://www.w3.org/1999/xlink" width="5000" zoomAndPan="magnify" viewBox="0 0 3750 3749.999967" height="5000" preserveAspectRatio="xMidYMid meet" version="1.0"><defs><g/><clipPath id="9571d081b5"><path d="M 893.871094 1462.378906 L 1379.871094 1462.378906 L 1379.871094 2194.753906 L 893.871094 2194.753906 Z M 893.871094 1462.378906 " clip-rule="nonzero"/></clipPath></defs><g fill="#000000" fill-opacity="1"><g transform="translate(1446.090643, 1778.307322)"><g><path d="M 40.015625 0 L 10 0 L 10 -116.71875 L 102.546875 -116.71875 L 102.546875 -93.375 L 40.015625 -93.375 L 40.015625 -65.859375 L 89.21875 -65.859375 L 89.21875 -42.515625 L 40.015625 -42.515625 Z M 40.015625 0 "/></g></g></g><g fill="#000000" fill-opacity="1"><g transform="translate(1583.657076, 1778.307322)"><g><path d="M 10 -116.71875 L 80.046875 -116.71875 C 91.710938 -116.71875 100.1875 -114.078125 105.46875 -108.796875 C 110.75 -103.523438 113.390625 -95.050781 113.390625 -83.375 L 113.390625 -68.375 C 113.390625 -59.144531 111.859375 -51.972656 108.796875 -46.859375 C 105.742188 -41.742188 100.882812 -38.351562 94.21875 -36.6875 L 115.0625 0 L 82.546875 0 L 63.359375 -35.015625 L 40.015625 -35.015625 L 40.015625 0 L 10 0 Z M 83.375 -83.375 C 83.375 -90.039062 80.039062 -93.375 73.375 -93.375 L 40.015625 -93.375 L 40.015625 -58.359375 L 73.375 -58.359375 C 80.039062 -58.359375 83.375 -61.695312 83.375 -68.375 Z M 83.375 -83.375 "/></g></g></g><g fill="#000000" fill-opacity="1"><g transform="translate(1737.0644, 1778.307322)"><g><path d="M 30.84375 0 L -1.671875 0 L 42.515625 -116.71875 L 75.875 -116.71875 L 120.0625 0 L 87.546875 0 L 80.046875 -20.84375 L 38.359375 -20.84375 Z M 45.859375 -42.515625 L 72.53125 -42.515625 L 59.203125 -81.703125 Z M 45.859375 -42.515625 "/></g></g></g><g fill="#000000" fill-opacity="1"><g transform="translate(1888.804258, 1778.307322)"><g><path d="M 100.046875 -1.671875 C 75.253906 0.554688 54.691406 1.671875 38.359375 1.671875 C 27.460938 1.671875 19.457031 -0.882812 14.34375 -6 C 9.226562 -11.113281 6.671875 -19.117188 6.671875 -30.015625 L 6.671875 -83.375 C 6.671875 -95.050781 9.3125 -103.523438 14.59375 -108.796875 C 19.875 -114.078125 28.347656 -116.71875 40.015625 -116.71875 L 100.046875 -116.71875 L 100.046875 -93.375 L 46.6875 -93.375 C 40.019531 -93.375 36.6875 -90.039062 36.6875 -83.375 L 36.6875 -30.015625 C 36.6875 -27.460938 37.4375 -25.429688 38.9375 -23.921875 C 40.4375 -22.421875 42.351562 -21.671875 44.6875 -21.671875 C 47.019531 -21.671875 49.578125 -21.695312 52.359375 -21.75 C 55.140625 -21.8125 58.03125 -21.894531 61.03125 -22 C 64.03125 -22.113281 67.054688 -22.226562 70.109375 -22.34375 C 73.171875 -22.457031 77.117188 -22.679688 81.953125 -23.015625 C 86.796875 -23.347656 92.828125 -23.734375 100.046875 -24.171875 Z M 100.046875 -1.671875 "/></g></g></g><g fill="#000000" fill-opacity="1"><g transform="translate(2025.536931, 1778.307322)"><g><path d="M 66.703125 0 L 36.6875 0 L 36.6875 -93.375 L 1.671875 -93.375 L 1.671875 -116.71875 L 101.71875 -116.71875 L 101.71875 -93.375 L 66.703125 -93.375 Z M 66.703125 0 "/></g></g></g><g fill="#000000" fill-opacity="1"><g transform="translate(2162.269649, 1778.307322)"><g><path d="M 65.03125 0 L 5 0 L 5 -23.34375 L 20.015625 -23.34375 L 20.015625 -93.375 L 5 -93.375 L 5 -116.71875 L 65.03125 -116.71875 L 65.03125 -93.375 L 50.03125 -93.375 L 50.03125 -23.34375 L 65.03125 -23.34375 Z M 65.03125 0 "/></g></g></g><g fill="#000000" fill-opacity="1"><g transform="translate(2265.653097, 1778.307322)"><g><path d="M 85.046875 -85.046875 C 85.046875 -91.710938 81.707031 -95.046875 75.03125 -95.046875 L 46.6875 -95.046875 C 40.019531 -95.046875 36.6875 -91.710938 36.6875 -85.046875 L 36.6875 -31.6875 C 36.6875 -25.007812 40.019531 -21.671875 46.6875 -21.671875 L 75.03125 -21.671875 C 81.707031 -21.671875 85.046875 -25.007812 85.046875 -31.6875 Z M 115.0625 -31.6875 C 115.0625 -20.007812 112.421875 -11.53125 107.140625 -6.25 C 101.859375 -0.96875 93.378906 1.671875 81.703125 1.671875 L 40.015625 1.671875 C 28.347656 1.671875 19.875 -0.96875 14.59375 -6.25 C 9.3125 -11.53125 6.671875 -20.007812 6.671875 -31.6875 L 6.671875 -85.046875 C 6.671875 -96.710938 9.3125 -105.1875 14.59375 -110.46875 C 19.875 -115.75 28.347656 -118.390625 40.015625 -118.390625 L 81.703125 -118.390625 C 93.378906 -118.390625 101.859375 -115.75 107.140625 -110.46875 C 112.421875 -105.1875 115.0625 -96.710938 115.0625 -85.046875 Z M 115.0625 -31.6875 "/></g></g></g><g fill="#000000" fill-opacity="1"><g transform="translate(2420.727859, 1778.307322)"><g><path d="M 111.71875 0 L 80.046875 0 L 40.015625 -70.03125 L 40.015625 0 L 10 0 L 10 -116.71875 L 41.6875 -116.71875 L 81.703125 -46.6875 L 81.703125 -116.71875 L 111.71875 -116.71875 Z M 111.71875 0 "/></g></g></g><g fill="#000000" fill-opacity="1"><g transform="translate(2575.802621, 1778.307322)"><g><path d="M 30.84375 0 L -1.671875 0 L 42.515625 -116.71875 L 75.875 -116.71875 L 120.0625 0 L 87.546875 0 L 80.046875 -20.84375 L 38.359375 -20.84375 Z M 45.859375 -42.515625 L 72.53125 -42.515625 L 59.203125 -81.703125 Z M 45.859375 -42.515625 "/></g></g></g><g fill="#000000" fill-opacity="1"><g transform="translate(1468.78646, 1926.986258)"><g><path d="M 32.859375 -40.34375 L 39.765625 -14.40625 L 45.828125 -40.34375 L 57.0625 -40.34375 L 46.109375 0 L 35.15625 0 L 28.25 -25.078125 L 21.328125 0 L 10.375 0 L -0.578125 -40.34375 L 10.65625 -40.34375 L 16.71875 -14.40625 L 23.625 -40.34375 Z M 32.859375 -40.34375 "/></g></g></g><g fill="#000000" fill-opacity="1"><g transform="translate(1556.852163, 1926.986258)"><g><path d="M 38.625 0 L 28.25 0 L 28.25 -16.421875 L 13.828125 -16.421875 L 13.828125 0 L 3.453125 0 L 3.453125 -40.34375 L 13.828125 -40.34375 L 13.828125 -24.5 L 28.25 -24.5 L 28.25 -40.34375 L 38.625 -40.34375 Z M 38.625 0 "/></g></g></g><g fill="#000000" fill-opacity="1"><g transform="translate(1630.509665, 1926.986258)"><g><path d="M 10.65625 0 L -0.578125 0 L 14.703125 -40.34375 L 26.21875 -40.34375 L 41.5 0 L 30.265625 0 L 27.671875 -7.203125 L 13.25 -7.203125 Z M 15.84375 -14.703125 L 25.078125 -14.703125 L 20.46875 -28.25 Z M 15.84375 -14.703125 "/></g></g></g><g fill="#000000" fill-opacity="1"><g transform="translate(1703.014506, 1926.986258)"><g><path d="M 23.0625 0 L 12.6875 0 L 12.6875 -32.28125 L 0.578125 -32.28125 L 0.578125 -40.34375 L 35.15625 -40.34375 L 35.15625 -32.28125 L 23.0625 -32.28125 Z M 23.0625 0 "/></g></g></g><g fill="#000000" fill-opacity="1"><g transform="translate(1770.332404, 1926.986258)"><g/></g></g><g fill="#000000" fill-opacity="1"><g transform="translate(1819.207782, 1926.986258)"><g><path d="M 38.046875 -22.484375 L 29.96875 -8.0625 L 21.90625 -8.0625 L 13.828125 -22.484375 L 13.828125 0 L 3.453125 0 L 3.453125 -40.34375 L 14.40625 -40.34375 L 25.9375 -19.015625 L 37.46875 -40.34375 L 48.421875 -40.34375 L 48.421875 0 L 38.046875 0 Z M 38.046875 -22.484375 "/></g></g></g><g fill="#000000" fill-opacity="1"><g transform="translate(1902.662857, 1926.986258)"><g><path d="M 10.65625 0 L -0.578125 0 L 14.703125 -40.34375 L 26.21875 -40.34375 L 41.5 0 L 30.265625 0 L 27.671875 -7.203125 L 13.25 -7.203125 Z M 15.84375 -14.703125 L 25.078125 -14.703125 L 20.46875 -28.25 Z M 15.84375 -14.703125 "/></g></g></g><g fill="#000000" fill-opacity="1"><g transform="translate(1975.167721, 1926.986258)"><g><path d="M 23.0625 0 L 12.6875 0 L 12.6875 -32.28125 L 0.578125 -32.28125 L 0.578125 -40.34375 L 35.15625 -40.34375 L 35.15625 -32.28125 L 23.0625 -32.28125 Z M 23.0625 0 "/></g></g></g><g fill="#000000" fill-opacity="1"><g transform="translate(2042.485619, 1926.986258)"><g><path d="M 23.0625 0 L 12.6875 0 L 12.6875 -32.28125 L 0.578125 -32.28125 L 0.578125 -40.34375 L 35.15625 -40.34375 L 35.15625 -32.28125 L 23.0625 -32.28125 Z M 23.0625 0 "/></g></g></g><g fill="#000000" fill-opacity="1"><g transform="translate(2109.803517, 1926.986258)"><g><path d="M 35.453125 0 L 3.453125 0 L 3.453125 -40.34375 L 35.453125 -40.34375 L 35.453125 -32.28125 L 13.828125 -32.28125 L 13.828125 -24.5 L 30.84375 -24.5 L 30.84375 -16.421875 L 13.828125 -16.421875 L 13.828125 -8.0625 L 35.453125 -8.0625 Z M 35.453125 0 "/></g></g></g><g fill="#000000" fill-opacity="1"><g transform="translate(2177.985902, 1926.986258)"><g><path d="M 3.453125 -40.34375 L 27.671875 -40.34375 C 31.703125 -40.34375 34.628906 -39.429688 36.453125 -37.609375 C 38.285156 -35.785156 39.203125 -32.851562 39.203125 -28.8125 L 39.203125 -23.625 C 39.203125 -20.4375 38.671875 -17.957031 37.609375 -16.1875 C 36.554688 -14.425781 34.875 -13.257812 32.5625 -12.6875 L 39.765625 0 L 28.53125 0 L 21.90625 -12.109375 L 13.828125 -12.109375 L 13.828125 0 L 3.453125 0 Z M 28.8125 -28.8125 C 28.8125 -31.125 27.660156 -32.28125 25.359375 -32.28125 L 13.828125 -32.28125 L 13.828125 -20.171875 L 25.359375 -20.171875 C 27.660156 -20.171875 28.8125 -21.320312 28.8125 -23.625 Z M 28.8125 -28.8125 "/></g></g></g><g fill="#000000" fill-opacity="1"><g transform="translate(2251.06709, 1926.986258)"><g><path d="M 2.25 -8.359375 C 12.78125 -7.785156 19.90625 -7.5 23.625 -7.5 C 24.507812 -7.5 25.210938 -7.753906 25.734375 -8.265625 C 26.253906 -8.785156 26.515625 -9.488281 26.515625 -10.375 L 26.515625 -15.5625 L 13.25 -15.5625 C 9.21875 -15.5625 6.289062 -16.472656 4.46875 -18.296875 C 2.644531 -20.117188 1.734375 -23.050781 1.734375 -27.09375 L 1.734375 -28.8125 C 1.734375 -32.851562 2.644531 -35.785156 4.46875 -37.609375 C 6.289062 -39.429688 9.21875 -40.34375 13.25 -40.34375 L 33.484375 -40.34375 L 33.484375 -32.28125 L 15.5625 -32.28125 C 13.257812 -32.28125 12.109375 -31.125 12.109375 -28.8125 L 12.109375 -27.671875 C 12.109375 -25.359375 13.257812 -24.203125 15.5625 -24.203125 L 25.9375 -24.203125 C 29.707031 -24.203125 32.472656 -23.316406 34.234375 -21.546875 C 36.003906 -19.785156 36.890625 -17.019531 36.890625 -13.25 L 36.890625 -10.375 C 36.890625 -6.601562 36.003906 -3.832031 34.234375 -2.0625 C 32.472656 -0.300781 29.707031 0.578125 25.9375 0.578125 C 23.976562 0.578125 21.90625 0.539062 19.71875 0.46875 L 14.40625 0.234375 C 10.488281 0.0351562 6.4375 -0.234375 2.25 -0.578125 Z M 2.25 -8.359375 "/></g></g></g><g fill="#000000" fill-opacity="1"><g transform="translate(2321.26661, 1926.986258)"><g><path d="M 1.734375 -8.640625 L 12.109375 -8.640625 L 12.109375 -0.578125 L 8.0625 5.765625 L 2.875 5.765625 L 5.1875 0 L 1.734375 0 Z M 1.734375 -8.640625 "/></g></g></g><g fill="#ffffff" fill-opacity="1"><g transform="translate(2366.688758, 1926.986258)"><g/></g></g><g fill="#39d5ff" fill-opacity="1"><g transform="translate(2415.567666, 1926.986258)"><g><path d="M 13.828125 0 L 3.453125 0 L 3.453125 -40.34375 L 35.453125 -40.34375 L 35.453125 -32.28125 L 13.828125 -32.28125 L 13.828125 -22.765625 L 30.84375 -22.765625 L 30.84375 -14.703125 L 13.828125 -14.703125 Z M 13.828125 0 "/></g></g></g><g fill="#39d5ff" fill-opacity="1"><g transform="translate(2483.173726, 1926.986258)"><g><path d="M 3.453125 -40.34375 L 27.671875 -40.34375 C 31.703125 -40.34375 34.628906 -39.429688 36.453125 -37.609375 C 38.285156 -35.785156 39.203125 -32.851562 39.203125 -28.8125 L 39.203125 -23.625 C 39.203125 -20.4375 38.671875 -17.957031 37.609375 -16.1875 C 36.554688 -14.425781 34.875 -13.257812 32.5625 -12.6875 L 39.765625 0 L 28.53125 0 L 21.90625 -12.109375 L 13.828125 -12.109375 L 13.828125 0 L 3.453125 0 Z M 28.8125 -28.8125 C 28.8125 -31.125 27.660156 -32.28125 25.359375 -32.28125 L 13.828125 -32.28125 L 13.828125 -20.171875 L 25.359375 -20.171875 C 27.660156 -20.171875 28.8125 -21.320312 28.8125 -23.625 Z M 28.8125 -28.8125 "/></g></g></g><g fill="#39d5ff" fill-opacity="1"><g transform="translate(2556.254902, 1926.986258)"><g><path d="M 10.65625 0 L -0.578125 0 L 14.703125 -40.34375 L 26.21875 -40.34375 L 41.5 0 L 30.265625 0 L 27.671875 -7.203125 L 13.25 -7.203125 Z M 15.84375 -14.703125 L 25.078125 -14.703125 L 20.46875 -28.25 Z M 15.84375 -14.703125 "/></g></g></g><g fill="#39d5ff" fill-opacity="1"><g transform="translate(2628.759732, 1926.986258)"><g><path d="M 34.578125 -0.578125 C 26.015625 0.191406 18.90625 0.578125 13.25 0.578125 C 9.488281 0.578125 6.722656 -0.300781 4.953125 -2.0625 C 3.191406 -3.832031 2.3125 -6.601562 2.3125 -10.375 L 2.3125 -28.8125 C 2.3125 -32.851562 3.222656 -35.785156 5.046875 -37.609375 C 6.867188 -39.429688 9.796875 -40.34375 13.828125 -40.34375 L 34.578125 -40.34375 L 34.578125 -32.28125 L 16.140625 -32.28125 C 13.835938 -32.28125 12.6875 -31.125 12.6875 -28.8125 L 12.6875 -10.375 C 12.6875 -9.488281 12.941406 -8.785156 13.453125 -8.265625 C 13.972656 -7.753906 14.632812 -7.5 15.4375 -7.5 C 16.25 -7.5 17.132812 -7.503906 18.09375 -7.515625 C 19.0625 -7.535156 20.0625 -7.566406 21.09375 -7.609375 C 22.132812 -7.648438 23.179688 -7.6875 24.234375 -7.71875 C 25.296875 -7.757812 26.660156 -7.835938 28.328125 -7.953125 C 30.003906 -8.066406 32.085938 -8.203125 34.578125 -8.359375 Z M 34.578125 -0.578125 "/></g></g></g><g fill="#39d5ff" fill-opacity="1"><g transform="translate(2696.07763, 1926.986258)"><g><path d="M 23.0625 0 L 12.6875 0 L 12.6875 -32.28125 L 0.578125 -32.28125 L 0.578125 -40.34375 L 35.15625 -40.34375 L 35.15625 -32.28125 L 23.0625 -32.28125 Z M 23.0625 0 "/></g></g></g><g fill="#39d5ff" fill-opacity="1"><g transform="translate(2763.395528, 1926.986258)"><g><path d="M 22.484375 0 L 1.734375 0 L 1.734375 -8.0625 L 6.921875 -8.0625 L 6.921875 -32.28125 L 1.734375 -32.28125 L 1.734375 -40.34375 L 22.484375 -40.34375 L 22.484375 -32.28125 L 17.296875 -32.28125 L 17.296875 -8.0625 L 22.484375 -8.0625 Z M 22.484375 0 "/></g></g></g><g fill="#39d5ff" fill-opacity="1"><g transform="translate(2819.186846, 1926.986258)"><g><path d="M 29.390625 -29.390625 C 29.390625 -31.703125 28.238281 -32.859375 25.9375 -32.859375 L 16.140625 -32.859375 C 13.835938 -32.859375 12.6875 -31.703125 12.6875 -29.390625 L 12.6875 -10.953125 C 12.6875 -8.648438 13.835938 -7.5 16.140625 -7.5 L 25.9375 -7.5 C 28.238281 -7.5 29.390625 -8.648438 29.390625 -10.953125 Z M 39.765625 -10.953125 C 39.765625 -6.921875 38.851562 -3.988281 37.03125 -2.15625 C 35.207031 -0.332031 32.28125 0.578125 28.25 0.578125 L 13.828125 0.578125 C 9.796875 0.578125 6.867188 -0.332031 5.046875 -2.15625 C 3.222656 -3.988281 2.3125 -6.921875 2.3125 -10.953125 L 2.3125 -29.390625 C 2.3125 -33.429688 3.222656 -36.363281 5.046875 -38.1875 C 6.867188 -40.007812 9.796875 -40.921875 13.828125 -40.921875 L 28.25 -40.921875 C 32.28125 -40.921875 35.207031 -40.007812 37.03125 -38.1875 C 38.851562 -36.363281 39.765625 -33.429688 39.765625 -29.390625 Z M 39.765625 -10.953125 "/></g></g></g><g fill="#39d5ff" fill-opacity="1"><g transform="translate(2892.844359, 1926.986258)"><g><path d="M 38.625 0 L 27.671875 0 L 13.828125 -24.203125 L 13.828125 0 L 3.453125 0 L 3.453125 -40.34375 L 14.40625 -40.34375 L 28.25 -16.140625 L 28.25 -40.34375 L 38.625 -40.34375 Z M 38.625 0 "/></g></g></g><g fill="#39d5ff" fill-opacity="1"><g transform="translate(1846.388007, 2007.236254)"><g><path d="M 3.453125 -40.34375 L 26.515625 -40.34375 C 30.273438 -40.34375 33.039062 -39.488281 34.8125 -37.78125 C 36.582031 -36.070312 37.46875 -33.46875 37.46875 -29.96875 C 37.46875 -27.664062 36.96875 -25.789062 35.96875 -24.34375 C 34.96875 -22.90625 33.738281 -21.898438 32.28125 -21.328125 C 35.394531 -20.484375 37.507812 -18.410156 38.625 -15.109375 C 39.007812 -13.910156 39.203125 -12.523438 39.203125 -10.953125 C 39.203125 -7.179688 38.316406 -4.410156 36.546875 -2.640625 C 34.773438 -0.878906 32.007812 0 28.25 0 L 3.453125 0 Z M 28.8125 -12.6875 C 28.8125 -14.988281 27.660156 -16.140625 25.359375 -16.140625 L 13.828125 -16.140625 L 13.828125 -8.0625 L 25.359375 -8.0625 C 27.660156 -8.0625 28.8125 -9.21875 28.8125 -11.53125 Z M 27.09375 -28.8125 C 27.09375 -31.125 25.9375 -32.28125 23.625 -32.28125 L 13.828125 -32.28125 L 13.828125 -24.203125 L 23.625 -24.203125 C 25.9375 -24.203125 27.09375 -25.359375 27.09375 -27.671875 Z M 27.09375 -28.8125 "/></g></g></g><g fill="#39d5ff" fill-opacity="1"><g transform="translate(1918.892848, 2007.236254)"><g><path d="M -1.15625 -40.34375 L 9.796875 -40.34375 L 19.3125 -20.75 L 28.8125 -40.34375 L 39.765625 -40.34375 L 24.5 -10.65625 L 24.5 0 L 14.125 0 L 14.125 -10.65625 Z M -1.15625 -40.34375 "/></g></g></g><g fill="#39d5ff" fill-opacity="1"><g transform="translate(1989.092379, 2007.236254)"><g/></g></g><g fill="#39d5ff" fill-opacity="1"><g transform="translate(2037.96777, 2007.236254)"><g><path d="M 13.828125 0 L 3.453125 0 L 3.453125 -40.34375 L 35.453125 -40.34375 L 35.453125 -32.28125 L 13.828125 -32.28125 L 13.828125 -22.765625 L 30.84375 -22.765625 L 30.84375 -14.703125 L 13.828125 -14.703125 Z M 13.828125 0 "/></g></g></g><g fill="#39d5ff" fill-opacity="1"><g transform="translate(2105.57383, 2007.236254)"><g><path d="M 3.453125 -40.34375 L 27.671875 -40.34375 C 31.703125 -40.34375 34.628906 -39.429688 36.453125 -37.609375 C 38.285156 -35.785156 39.203125 -32.851562 39.203125 -28.8125 L 39.203125 -23.625 C 39.203125 -20.4375 38.671875 -17.957031 37.609375 -16.1875 C 36.554688 -14.425781 34.875 -13.257812 32.5625 -12.6875 L 39.765625 0 L 28.53125 0 L 21.90625 -12.109375 L 13.828125 -12.109375 L 13.828125 0 L 3.453125 0 Z M 28.8125 -28.8125 C 28.8125 -31.125 27.660156 -32.28125 25.359375 -32.28125 L 13.828125 -32.28125 L 13.828125 -20.171875 L 25.359375 -20.171875 C 27.660156 -20.171875 28.8125 -21.320312 28.8125 -23.625 Z M 28.8125 -28.8125 "/></g></g></g><g fill="#39d5ff" fill-opacity="1"><g transform="translate(2178.655018, 2007.236254)"><g><path d="M 10.65625 0 L -0.578125 0 L 14.703125 -40.34375 L 26.21875 -40.34375 L 41.5 0 L 30.265625 0 L 27.671875 -7.203125 L 13.25 -7.203125 Z M 15.84375 -14.703125 L 25.078125 -14.703125 L 20.46875 -28.25 Z M 15.84375 -14.703125 "/></g></g></g><g fill="#39d5ff" fill-opacity="1"><g transform="translate(2251.159836, 2007.236254)"><g><path d="M 34.578125 -0.578125 C 26.015625 0.191406 18.90625 0.578125 13.25 0.578125 C 9.488281 0.578125 6.722656 -0.300781 4.953125 -2.0625 C 3.191406 -3.832031 2.3125 -6.601562 2.3125 -10.375 L 2.3125 -28.8125 C 2.3125 -32.851562 3.222656 -35.785156 5.046875 -37.609375 C 6.867188 -39.429688 9.796875 -40.34375 13.828125 -40.34375 L 34.578125 -40.34375 L 34.578125 -32.28125 L 16.140625 -32.28125 C 13.835938 -32.28125 12.6875 -31.125 12.6875 -28.8125 L 12.6875 -10.375 C 12.6875 -9.488281 12.941406 -8.785156 13.453125 -8.265625 C 13.972656 -7.753906 14.632812 -7.5 15.4375 -7.5 C 16.25 -7.5 17.132812 -7.503906 18.09375 -7.515625 C 19.0625 -7.535156 20.0625 -7.566406 21.09375 -7.609375 C 22.132812 -7.648438 23.179688 -7.6875 24.234375 -7.71875 C 25.296875 -7.757812 26.660156 -7.835938 28.328125 -7.953125 C 30.003906 -8.066406 32.085938 -8.203125 34.578125 -8.359375 Z M 34.578125 -0.578125 "/></g></g></g><g fill="#39d5ff" fill-opacity="1"><g transform="translate(2318.477734, 2007.236254)"><g><path d="M 23.0625 0 L 12.6875 0 L 12.6875 -32.28125 L 0.578125 -32.28125 L 0.578125 -40.34375 L 35.15625 -40.34375 L 35.15625 -32.28125 L 23.0625 -32.28125 Z M 23.0625 0 "/></g></g></g><g fill="#39d5ff" fill-opacity="1"><g transform="translate(2385.795633, 2007.236254)"><g><path d="M 22.484375 0 L 1.734375 0 L 1.734375 -8.0625 L 6.921875 -8.0625 L 6.921875 -32.28125 L 1.734375 -32.28125 L 1.734375 -40.34375 L 22.484375 -40.34375 L 22.484375 -32.28125 L 17.296875 -32.28125 L 17.296875 -8.0625 L 22.484375 -8.0625 Z M 22.484375 0 "/></g></g></g><g fill="#39d5ff" fill-opacity="1"><g transform="translate(2441.586951, 2007.236254)"><g><path d="M 29.390625 -29.390625 C 29.390625 -31.703125 28.238281 -32.859375 25.9375 -32.859375 L 16.140625 -32.859375 C 13.835938 -32.859375 12.6875 -31.703125 12.6875 -29.390625 L 12.6875 -10.953125 C 12.6875 -8.648438 13.835938 -7.5 16.140625 -7.5 L 25.9375 -7.5 C 28.238281 -7.5 29.390625 -8.648438 29.390625 -10.953125 Z M 39.765625 -10.953125 C 39.765625 -6.921875 38.851562 -3.988281 37.03125 -2.15625 C 35.207031 -0.332031 32.28125 0.578125 28.25 0.578125 L 13.828125 0.578125 C 9.796875 0.578125 6.867188 -0.332031 5.046875 -2.15625 C 3.222656 -3.988281 2.3125 -6.921875 2.3125 -10.953125 L 2.3125 -29.390625 C 2.3125 -33.429688 3.222656 -36.363281 5.046875 -38.1875 C 6.867188 -40.007812 9.796875 -40.921875 13.828125 -40.921875 L 28.25 -40.921875 C 32.28125 -40.921875 35.207031 -40.007812 37.03125 -38.1875 C 38.851562 -36.363281 39.765625 -33.429688 39.765625 -29.390625 Z M 39.765625 -10.953125 "/></g></g></g><g fill="#39d5ff" fill-opacity="1"><g transform="translate(2515.244463, 2007.236254)"><g><path d="M 38.625 0 L 27.671875 0 L 13.828125 -24.203125 L 13.828125 0 L 3.453125 0 L 3.453125 -40.34375 L 14.40625 -40.34375 L 28.25 -16.140625 L 28.25 -40.34375 L 38.625 -40.34375 Z M 38.625 0 "/></g></g></g><path stroke-linecap="round" transform="matrix(0.000000001309, 0.75, -0.75, 0.000000001309, 1409.875721, 1576.436276)" fill="none" stroke-linejoin="miter" d="M 15.001632 15.000963 L 668.340207 15.000964 " stroke="#39d5ff" stroke-width="30" stroke-opacity="1" stroke-miterlimit="4"/><path fill="#00aeef" d="M 1273.566406 1828.722656 L 1136.769531 1691.851562 L 1097.316406 1731.324219 C 1097.316406 1731.324219 1097.300781 1731.34375 1097.300781 1731.34375 L 999.972656 1828.722656 L 1097.300781 1926.105469 C 1097.316406 1926.121094 1097.316406 1926.121094 1097.332031 1926.136719 L 1136.769531 1965.597656 Z M 1273.566406 1828.722656 " fill-opacity="1" fill-rule="nonzero"/><path fill="#33bef2" d="M 999.972656 1828.722656 L 915.910156 1912.835938 C 894.117188 1934.640625 894.117188 1970 915.910156 1991.800781 L 1013.234375 2089.183594 L 1136.769531 1965.582031 L 1097.332031 1926.121094 C 1097.332031 1926.105469 1097.316406 1926.105469 1097.300781 1926.089844 Z M 999.972656 1828.722656 " fill-opacity="1" fill-rule="nonzero"/><path fill="#66cef5" d="M 1136.769531 1965.582031 L 1013.238281 2089.183594 L 1097.300781 2173.296875 C 1119.09375 2195.097656 1154.429688 2195.097656 1176.222656 2173.296875 L 1260.289062 2089.183594 Z M 1136.769531 1965.582031 " fill-opacity="1" fill-rule="nonzero"/><path fill="#99dff9" d="M 1136.769531 1965.582031 L 1260.304688 2089.167969 L 1357.632812 1991.785156 C 1379.421875 1969.980469 1379.421875 1934.625 1357.632812 1912.820312 L 1273.566406 1828.707031 Z M 1136.769531 1965.582031 " fill-opacity="1" fill-rule="nonzero"/><path fill="#002c3c" d="M 1136.769531 1691.851562 L 1013.234375 1568.25 L 915.910156 1665.632812 C 894.117188 1687.433594 894.117188 1722.792969 915.910156 1744.59375 L 996.132812 1824.863281 L 999.972656 1828.707031 L 1097.300781 1731.324219 C 1097.300781 1731.324219 1097.316406 1731.324219 1097.316406 1731.308594 Z M 1136.769531 1691.851562 " fill-opacity="1" fill-rule="nonzero"/><path fill="#005778" d="M 1136.769531 1691.851562 L 1260.304688 1568.25 L 1176.238281 1484.136719 C 1154.445312 1462.332031 1119.109375 1462.316406 1097.316406 1484.136719 L 1013.253906 1568.25 Z M 1136.769531 1691.851562 " fill-opacity="1" fill-rule="nonzero"/><path fill="#0083b3" d="M 1357.617188 1665.632812 L 1260.289062 1568.25 L 1136.769531 1691.851562 L 1273.566406 1828.722656 L 1357.617188 1744.609375 C 1379.421875 1722.792969 1379.421875 1687.449219 1357.617188 1665.632812 Z M 1357.617188 1665.632812 " fill-opacity="1" fill-rule="nonzero"/><g clip-path="url(#9571d081b5)"><path stroke-linecap="butt" transform="matrix(0, 0.75, -0.75, 0, 1379.872915, 1462.380506)" fill="none" stroke-linejoin="miter" d="M -0.002133 0.00242824 L -0.002133 648.033711 L 976.497916 648.033711 L 976.497916 0.00242824 L -0.002133 0.00242824 " stroke="#000000" stroke-width="8" stroke-opacity="1" stroke-miterlimit="4"/></g><g fill="#39d5ff" fill-opacity="1"><g transform="translate(2730.185735, 1778.110786)"><g><path d="M 38.453125 0 L 3 0 L 54.859375 -90.078125 L 5.515625 -175.125 L 42.28125 -175.125 L 78.578125 -112.359375 L 81.578125 -112.359375 L 118.46875 -175.125 L 153.453125 -175.125 L 104.09375 -90.078125 L 155.96875 0 L 119.3125 0 L 80.375 -67.5625 L 77.390625 -67.5625 Z M 38.453125 0 "/></g></g></g><g fill="#ffffff" fill-opacity="1"><g transform="translate(1444.755412, 1830.750007)"><g><path d="M 68.90625 18.125 L 0 18.125 L 0 7.65625 L 68.90625 7.65625 Z M 68.90625 18.125 "/></g></g></g><g fill="#ffffff" fill-opacity="1"><g transform="translate(1513.581858, 1830.750007)"><g><path d="M 68.90625 18.125 L 0 18.125 L 0 7.65625 L 68.90625 7.65625 Z M 68.90625 18.125 "/></g></g></g><g fill="#ffffff" fill-opacity="1"><g transform="translate(1582.408305, 1830.750007)"><g><path d="M 68.90625 18.125 L 0 18.125 L 0 7.65625 L 68.90625 7.65625 Z M 68.90625 18.125 "/></g></g></g><g fill="#ffffff" fill-opacity="1"><g transform="translate(1651.23474, 1830.750007)"><g><path d="M 68.90625 18.125 L 0 18.125 L 0 7.65625 L 68.90625 7.65625 Z M 68.90625 18.125 "/></g></g></g><g fill="#ffffff" fill-opacity="1"><g transform="translate(1720.061198, 1830.750007)"><g><path d="M 68.90625 18.125 L 0 18.125 L 0 7.65625 L 68.90625 7.65625 Z M 68.90625 18.125 "/></g></g></g><g fill="#ffffff" fill-opacity="1"><g transform="translate(1788.887657, 1830.750007)"><g><path d="M 68.90625 18.125 L 0 18.125 L 0 7.65625 L 68.90625 7.65625 Z M 68.90625 18.125 "/></g></g></g><g fill="#ffffff" fill-opacity="1"><g transform="translate(1857.714115, 1830.750007)"><g><path d="M 68.90625 18.125 L 0 18.125 L 0 7.65625 L 68.90625 7.65625 Z M 68.90625 18.125 "/></g></g></g><g fill="#ffffff" fill-opacity="1"><g transform="translate(1926.540574, 1830.750007)"><g><path d="M 68.90625 18.125 L 0 18.125 L 0 7.65625 L 68.90625 7.65625 Z M 68.90625 18.125 "/></g></g></g><g fill="#ffffff" fill-opacity="1"><g transform="translate(1995.367033, 1830.750007)"><g><path d="M 68.90625 18.125 L 0 18.125 L 0 7.65625 L 68.90625 7.65625 Z M 68.90625 18.125 "/></g></g></g><g fill="#ffffff" fill-opacity="1"><g transform="translate(2064.193491, 1830.750007)"><g><path d="M 68.90625 18.125 L 0 18.125 L 0 7.65625 L 68.90625 7.65625 Z M 68.90625 18.125 "/></g></g></g><g fill="#ffffff" fill-opacity="1"><g transform="translate(2133.01995, 1830.750007)"><g><path d="M 68.90625 18.125 L 0 18.125 L 0 7.65625 L 68.90625 7.65625 Z M 68.90625 18.125 "/></g></g></g><g fill="#ffffff" fill-opacity="1"><g transform="translate(2201.846408, 1830.750007)"><g><path d="M 68.90625 18.125 L 0 18.125 L 0 7.65625 L 68.90625 7.65625 Z M 68.90625 18.125 "/></g></g></g><g fill="#ffffff" fill-opacity="1"><g transform="translate(2270.672821, 1830.750007)"><g><path d="M 68.90625 18.125 L 0 18.125 L 0 7.65625 L 68.90625 7.65625 Z M 68.90625 18.125 "/></g></g></g><g fill="#ffffff" fill-opacity="1"><g transform="translate(2339.499234, 1830.750007)"><g><path d="M 68.90625 18.125 L 0 18.125 L 0 7.65625 L 68.90625 7.65625 Z M 68.90625 18.125 "/></g></g></g><g fill="#ffffff" fill-opacity="1"><g transform="translate(2408.325646, 1830.750007)"><g><path d="M 68.90625 18.125 L 0 18.125 L 0 7.65625 L 68.90625 7.65625 Z M 68.90625 18.125 "/></g></g></g><g fill="#ffffff" fill-opacity="1"><g transform="translate(2477.152059, 1830.750007)"><g><path d="M 68.90625 18.125 L 0 18.125 L 0 7.65625 L 68.90625 7.65625 Z M 68.90625 18.125 "/></g></g></g><g fill="#ffffff" fill-opacity="1"><g transform="translate(2545.978472, 1830.750007)"><g><path d="M 68.90625 18.125 L 0 18.125 L 0 7.65625 L 68.90625 7.65625 Z M 68.90625 18.125 "/></g></g></g><g fill="#ffffff" fill-opacity="1"><g transform="translate(2614.804885, 1830.750007)"><g><path d="M 68.90625 18.125 L 0 18.125 L 0 7.65625 L 68.90625 7.65625 Z M 68.90625 18.125 "/></g></g></g><g fill="#ffffff" fill-opacity="1"><g transform="translate(2683.631297, 1830.750007)"><g><path d="M 68.90625 18.125 L 0 18.125 L 0 7.65625 L 68.90625 7.65625 Z M 68.90625 18.125 "/></g></g></g><g fill="#ffffff" fill-opacity="1"><g transform="translate(2752.45771, 1830.750007)"><g><path d="M 68.90625 18.125 L 0 18.125 L 0 7.65625 L 68.90625 7.65625 Z M 68.90625 18.125 "/></g></g></g><g fill="#ffffff" fill-opacity="1"><g transform="translate(2821.284123, 1830.750007)"><g><path d="M 68.90625 18.125 L 0 18.125 L 0 7.65625 L 68.90625 7.65625 Z M 68.90625 18.125 "/></g></g></g><g fill="#ffffff" fill-opacity="1"><g transform="translate(2890.110536, 1830.750007)"><g><path d="M 68.90625 18.125 L 0 18.125 L 0 7.65625 L 68.90625 7.65625 Z M 68.90625 18.125 "/></g></g></g></svg>